<?xml version="1.0" encoding="UTF-8" standalone="no"?>
<svg
   xmlns:dc="http://purl.org/dc/elements/1.1/"
   xmlns:cc="http://creativecommons.org/ns#"
   xmlns:rdf="http://www.w3.org/1999/02/22-rdf-syntax-ns#"
   xmlns:svg="http://www.w3.org/2000/svg"
   xmlns="http://www.w3.org/2000/svg"
   xmlns:sodipodi="http://sodipodi.sourceforge.net/DTD/sodipodi-0.dtd"
   xmlns:inkscape="http://www.inkscape.org/namespaces/inkscape"
   width="210mm"
   height="297mm"
   viewBox="0 0 210 297"
   version="1.1"
   id="svg8"
   inkscape:version="1.0.1 (0767f8302a, 2020-10-17)"
   sodipodi:docname="marca stori ovely.svg">
  <defs
     id="defs2" />
  <sodipodi:namedview
     id="base"
     pagecolor="#ffffff"
     bordercolor="#666666"
     borderopacity="1.0"
     inkscape:pageopacity="0.0"
     inkscape:pageshadow="2"
     inkscape:zoom="1.4"
     inkscape:cx="240.48219"
     inkscape:cy="487.83192"
     inkscape:document-units="mm"
     inkscape:current-layer="layer1"
     inkscape:document-rotation="0"
     showgrid="false"
     inkscape:window-width="1853"
     inkscape:window-height="1025"
     inkscape:window-x="67"
     inkscape:window-y="27"
     inkscape:window-maximized="1" />
  <metadata
     id="metadata5">
    <rdf:RDF>
      <cc:Work
         rdf:about="">
        <dc:format>image/svg+xml</dc:format>
        <dc:type
           rdf:resource="http://purl.org/dc/dcmitype/StillImage" />
        <dc:title></dc:title>
      </cc:Work>
    </rdf:RDF>
  </metadata>
  <g
     inkscape:label="Capa 1"
     inkscape:groupmode="layer"
     id="layer1">
    <path
       id="path960"
       style="opacity:1;fill:#ff0000;fill-opacity:1;stroke:none;stroke-width:1.4;stroke-dasharray:1.4, 2.8;stroke-opacity:0"
       d="M 377.70898 237.4375 A 228.22113 228.22113 0 0 0 201.47656 320.96289 L 337.84961 320.96289 L 337.79102 320.86133 L 439.59375 320.86133 L 388.69336 406.18945 L 157.62695 406.18945 A 228.22113 228.22113 0 0 0 150.09375 453.01367 L 273.24023 453.01367 L 273.18945 452.92773 L 359.37109 452.92773 L 316.28125 525.16211 L 157.63672 525.16211 A 228.22113 228.22113 0 0 0 377.96289 693.88086 A 228.22113 228.22113 0 0 0 606.18359 465.6582 A 228.22113 228.22113 0 0 0 377.96289 237.4375 A 228.22113 228.22113 0 0 0 377.70898 237.4375 z "
       transform="scale(0.26458333)" />
  </g>
</svg>
