<?xml version="1.0" encoding="UTF-8" standalone="no"?>
<svg
   xmlns:dc="http://purl.org/dc/elements/1.1/"
   xmlns:cc="http://creativecommons.org/ns#"
   xmlns:rdf="http://www.w3.org/1999/02/22-rdf-syntax-ns#"
   xmlns:svg="http://www.w3.org/2000/svg"
   xmlns="http://www.w3.org/2000/svg"
   xmlns:sodipodi="http://sodipodi.sourceforge.net/DTD/sodipodi-0.dtd"
   xmlns:inkscape="http://www.inkscape.org/namespaces/inkscape"
   version="1.1"
   id="svg1131"
   width="800"
   height="600"
   viewBox="0 0 800 600"
   sodipodi:docname="sage grafiti0.1.png.svg"
   inkscape:version="1.0.1 (0767f8302a, 2020-10-17)">
  <metadata
     id="metadata1137">
    <rdf:RDF>
      <cc:Work
         rdf:about="">
        <dc:format>image/svg+xml</dc:format>
        <dc:type
           rdf:resource="http://purl.org/dc/dcmitype/StillImage" />
        <dc:title></dc:title>
      </cc:Work>
    </rdf:RDF>
  </metadata>
  <defs
     id="defs1135" />
  <sodipodi:namedview
     pagecolor="#ffffff"
     bordercolor="#666666"
     borderopacity="1"
     objecttolerance="10"
     gridtolerance="10"
     guidetolerance="10"
     inkscape:pageopacity="0"
     inkscape:pageshadow="2"
     inkscape:window-width="1853"
     inkscape:window-height="1025"
     id="namedview1133"
     showgrid="false"
     inkscape:zoom="1.0347329"
     inkscape:cx="370.08982"
     inkscape:cy="317.83288"
     inkscape:window-x="67"
     inkscape:window-y="27"
     inkscape:window-maximized="1"
     inkscape:current-layer="g1139" />
  <g
     inkscape:groupmode="layer"
     inkscape:label="Image"
     id="g1139">
    <path
       style="fill:#1fd6d6;fill-opacity:0.904792"
       d="m 410.73603,474.65999 c -0.29437,-0.55 0.0165,-3.025 0.69072,-5.5 0.73442,-2.69579 1.21078,-3.49766 1.18811,-2 -0.0572,3.78145 -1.27255,8.63279 -1.87883,7.5 z m -5.92238,-8.5 c -2.24099,-3.3 -3.84952,-6 -3.57452,-6 0.275,0 2.33353,2.7 4.57452,6 2.24099,3.3 3.84952,6 3.57452,6 -0.275,0 -2.33353,-2.7 -4.57452,-6 z m 8.09426,-4 c -0.035,-1.375 0.34808,-3.15075 0.85128,-3.94612 1.14257,-1.80596 -0.59682,-5.38744 -2.15022,-4.42738 -0.6456,0.399 -0.82274,0.22688 -0.42643,-0.41436 0.37285,-0.60328 -2.42834,-5.61755 -6.22485,-11.14282 l -6.90277,-10.04595 -1.13938,-11.26169 c -0.62666,-6.19392 -2.0205,-22.06168 -3.09743,-35.26168 -3.6617,-44.88171 -4.31903,-51.5 -5.11497,-51.5 -2.18098,0 -5.88949,2.51998 -5.88949,4.00199 0,4.67854 3.18993,45.98337 4.32467,55.99801 l 1.30304,11.5 -3.39086,7.82814 c -1.86497,4.30547 -3.18364,8.36815 -2.93036,9.02817 0.25327,0.66002 -0.59174,3.21236 -1.87781,5.67186 -1.28607,2.45951 -2.33978,4.02183 -2.34158,3.47183 -0.002,-0.55 0.82822,-2.56169 1.84449,-4.47043 1.49682,-2.81132 1.60016,-3.66597 0.54411,-4.5 -0.717,-0.56626 -3.80333,-5.54325 -6.85852,-11.05996 l -5.55487,-10.03039 1.48242,-19.96961 c 0.81533,-10.98329 1.92631,-25.54746 2.46884,-32.36483 0.54254,-6.81737 0.98643,-12.80976 0.98643,-13.31642 0,-0.50666 -1.2375,-0.77881 -2.75,-0.60478 -1.643,0.18905 -2.63939,0.84952 -2.47522,1.64075 0.15112,0.72838 -0.13539,1.07084 -0.6367,0.76101 -0.5013,-0.30983 -1.46755,0.10673 -2.14722,0.92567 -1.6622,2.00283 -3.23057,1.87488 -6.26373,-0.51101 -2.83267,-2.22818 -4.21721,-2.60198 -3.13164,-0.84549 0.43744,0.70779 0.2748,0.88336 -0.42031,0.45375 -0.62362,-0.38541 -2.01559,-0.22885 -3.09327,0.3479 -1.50788,0.80699 -2.7241,0.59749 -5.27761,-0.90912 -2.82269,-1.66542 -3.93319,-1.80166 -7.43677,-0.91236 -3.30587,0.83912 -4.71882,0.73502 -7.16033,-0.52753 -2.90396,-1.5017 -3.05783,-1.90212 -3.39688,-8.84005 -0.32666,-6.68421 -0.15994,-7.4343 2.07857,-9.35159 2.32746,-1.99347 2.23119,-5.22579 -0.1125,-3.77731 -0.64312,0.39747 -0.79815,0.20602 -0.38045,-0.46983 0.40127,-0.64927 -1.03991,-2.95652 -3.34549,-5.35595 -4.58298,-4.76951 -4.56908,-4.7303 -2.61199,-7.37129 1.31536,-1.77501 1.08359,-2.30483 -2.70821,-6.19113 -2.28067,-2.3375 -3.6943,-4.25 -3.14141,-4.25 0.5529,0 2.73924,1.77575 4.85853,3.94611 3.83658,3.929 3.84568,3.95769 2.10106,6.62032 -1.68779,2.5759 -1.6781,2.74835 0.26376,4.6902 l 2.01598,2.01598 2.59386,-5.11874 2.59386,-5.11875 -4.25794,-2.6278 c -2.34187,-1.44529 -5.25462,-3.25319 -6.47277,-4.01756 -1.21815,-0.76437 -2.72838,-1.38976 -3.35608,-1.38976 -0.62769,0 -2.02618,-1.125 -3.10776,-2.5 -1.08158,-1.375 -2.31047,-2.5 -2.73089,-2.5 -0.42041,0 -1.30084,4.94621 -1.95652,10.99157 -1.78599,16.46688 -2.52839,17.2853 -4.45554,4.91177 l -1.63324,-10.48651 4.90298,-15.35515 4.90297,-15.35514 -2.67555,-3.35324 c -2.13365,-2.67408 -3.3958,-3.35325 -6.23166,-3.35327 -3.42706,-3e-5 -3.62982,0.20864 -5.587,5.74997 -1.69357,4.79496 -2.82129,6.27429 -6.78964,8.90656 l -4.75876,3.15655 -4.99813,-1.69891 -4.99812,-1.69892 -0.35171,-8.45764 c -0.29864,-7.18151 2.72652,-34.54448 5.08713,-46.01382 0.91035,-4.42304 5.12004,-6.03093 13.85638,-5.29244 7.10467,0.60056 8.20563,1.02889 16.60261,6.45916 4.94634,3.19877 8.99335,6.27456 8.99335,6.83509 0,0.56053 1.8,3.96 4,7.55437 5.1019,8.33551 5.19495,11.64742 0.5,17.79621 -2.50999,3.28723 -3.5,5.60688 -3.5,8.20069 0,3.51002 0.21421,3.71753 7.25,7.02335 5.31443,2.49703 9.64822,5.68554 16.23292,11.94311 4.94061,4.69515 8.5963,8.53664 8.12377,8.53664 -0.47253,0 -5.02054,-2.25 -10.10669,-5 -5.08615,-2.75 -9.52934,-5 -9.87377,-5 -0.34443,0 -0.62623,0.9229 -0.62623,2.05089 0,1.94622 -0.18039,1.9133 -3.53433,-0.64487 -3.03199,-2.31262 -3.88478,-2.53609 -6,-1.57233 -2.13539,0.97294 -2.46567,1.7836 -2.46567,6.05175 0,4.68241 0.24695,5.13508 4.9492,9.07203 2.91222,2.43824 4.73456,4.70307 4.42768,5.50278 -0.93818,2.44487 3.37665,2.69624 10.18501,0.59335 10.43493,-3.22302 13.07869,-2.85531 20.88106,2.90429 3.69397,2.72683 7.58048,5.23216 8.63668,5.56738 2.1582,0.68499 2.41135,1.58375 0.87799,3.11711 -0.72318,0.72318 -0.56432,1.43914 0.51876,2.33801 1.29313,1.07321 1.87186,1.01443 3.37112,-0.34238 2.82582,-2.55733 5.78589,-1.95619 10.39962,2.11199 2.33908,2.0625 3.65164,2.98221 2.91679,2.0438 -1.9343,-2.47011 -0.59798,-3.7938 3.83001,-3.7938 4.38691,0 9.00608,-1.48325 9.00608,-2.89192 0,-0.51778 -1.20675,-1.34366 -2.68166,-1.8353 l -2.68165,-0.89388 3.65862,-2.79058 c 4.17445,-3.184 11.46169,-5.23132 13.03179,-3.66122 1.32405,1.32405 -0.80846,8.55426 -3.24028,10.98608 -3.19949,3.19949 -3.14872,6.66494 0.13321,9.09137 3.55738,2.63009 3.56635,6.84394 0.0248,11.64056 -2.53672,3.43568 -8.52067,5.02277 -11.18204,2.96575 -1.12497,-0.86951 -1.31652,-0.78496 -0.88162,0.38914 0.30558,0.825 1.14794,4.82427 1.87191,8.88726 l 1.31631,7.38727 2.31035,-2.88727 c 2.95811,-3.69677 2.98625,-7.63956 0.0703,-9.84526 -2.24264,-1.69637 -2.24183,-1.69722 0.25,-0.25854 3.52523,2.03533 3.74994,6.04454 0.57229,10.21065 -1.41476,1.85484 -2.57229,4.09286 -2.57229,4.97337 0,1.74157 6.11012,31.63772 15.33501,75.03252 2.81753,13.25395 3.05252,15.52381 2.01876,19.5 -0.64347,2.475 -1.49723,7.11227 -1.89725,10.30503 -0.53626,4.28021 -1.08307,5.66852 -2.08172,5.2853 -0.86681,-0.33262 -1.56958,0.45759 -1.95208,2.19497 -0.96333,4.37565 -1.26083,4.87162 -1.32846,2.2147 z m -16.11803,-7.53455 c -1.71593,-2.49401 -2.89807,-5.08151 -2.62699,-5.75 0.3595,-0.88657 0.51423,-0.85833 0.57181,0.10437 0.0434,0.72591 1.45057,3.31341 3.12699,5.75 1.67642,2.4366 2.82304,4.43018 2.54804,4.43018 -0.275,0 -1.90393,-2.04055 -3.61985,-4.53455 z m -3.66636,-14.96545 c 0.006,-3.3 0.1923,-4.52944 0.41486,-2.73209 0.22256,1.79735 0.21797,4.49735 -0.0102,6 -0.22818,1.50265 -0.41027,0.0321 -0.40466,-3.26791 z m -20.64609,-4.25 c -1.2402,-2.7251 -1.30014,-3.20338 -0.21931,-1.75 0.81802,1.1 1.95267,2.54351 2.52142,3.20779 1.24368,1.45257 1.32402,2.29221 0.21932,2.29221 -0.44813,0 -1.58277,-1.6875 -2.52143,-3.75 z m 19.63588,-8.25 c 0,-3.025 0.18747,-4.2625 0.41659,-2.75 0.22913,1.5125 0.22913,3.9875 0,5.5 -0.22912,1.5125 -0.41659,0.275 -0.41659,-2.75 z m -23.29966,2 c -0.5887,-1.1 -0.84537,-2 -0.57037,-2 0.275,0 0.98167,0.9 1.57037,2 0.5887,1.1 0.84537,2 0.57037,2 -0.275,0 -0.98167,-0.9 -1.57037,-2 z m -4.61596,-8.44159 c -0.30425,-0.79287 -0.37694,-2.25537 -0.16154,-3.25 0.24456,-1.12921 0.58685,-0.58778 0.91138,1.44159 0.5446,3.40551 0.19062,4.25921 -0.74984,1.80841 z m 26.88832,-3.55841 c 0,-2.475 0.19502,-3.4875 0.43337,-2.25 0.23836,1.2375 0.23836,3.2625 0,4.5 -0.23835,1.2375 -0.43337,0.225 -0.43337,-2.25 z m -25.94422,-9.5 c 0.004,-3.85 0.18518,-5.30246 0.40166,-3.2277 0.21647,2.07477 0.21284,5.22477 -0.008,7 -0.22091,1.77524 -0.39803,0.0777 -0.39359,-3.7723 z m -104.68116,-8.5 -6.65804,-10 H 244.276 c -6.24258,0 -10.77496,0.5216 -13.14801,1.51313 -1.99178,0.83222 -3.80467,1.32988 -4.02864,1.10591 -0.22396,-0.22397 1.53314,-1.14825 3.90469,-2.05395 3.16882,-1.21018 6.83002,-1.56963 13.81075,-1.35591 l 9.49886,0.29082 6.57127,9.68835 6.57127,9.68834 7.30083,-9.43834 c 4.01545,-5.19109 7.49639,-9.43835 7.73543,-9.43835 0.23903,0 -0.15341,0.81406 -0.8721,1.80902 -2.53367,3.50764 -14.05946,18.19098 -14.27914,18.19098 -0.12239,0 -3.21865,-4.5 -6.88058,-10 z m 129.51091,6 c 0,-1.375 0.22698,-1.9375 0.50439,-1.25 0.27741,0.6875 0.27741,1.8125 0,2.5 -0.27741,0.6875 -0.50439,0.125 -0.50439,-1.25 z m -179.96881,-12.14301 0.18909,-6.35699 0.35914,5.69379 0.35914,5.69379 4.59331,-1.96892 c 2.52632,-1.08291 4.77329,-1.78894 4.99326,-1.56897 0.33939,0.33939 -1.81079,1.33481 -9.43302,4.36702 -0.9322,0.37084 -1.20193,-1.11894 -1.06092,-5.85972 z m 156.12079,0.64301 c 0.006,-3.3 0.1923,-4.52944 0.41486,-2.73209 0.22256,1.79735 0.21797,4.49735 -0.0102,6 -0.22818,1.50265 -0.41027,0.0321 -0.40466,-3.26791 z m 22.98979,-1.5 c 0,-3.025 0.18747,-4.2625 0.41659,-2.75 0.22913,1.5125 0.22913,3.9875 0,5.5 -0.22912,1.5125 -0.41659,0.275 -0.41659,-2.75 z m -166.29966,1 c 0.825,-0.53316 1.95,-0.96937 2.5,-0.96937 0.55,0 0.325,0.43621 -0.5,0.96937 -0.825,0.53316 -1.95,0.96937 -2.5,0.96937 -0.55,0 -0.325,-0.43621 0.5,-0.96937 z m 42.64698,-11 -6.65804,-10 -9.24447,0.0356 c -8.84978,0.0341 -9.79949,0.26401 -22.24447,5.38451 -7.15,2.94187 -13.12209,5.24124 -13.27131,5.10971 -0.37467,-0.33026 1.50528,-39.37256 2.88908,-59.99972 1.27284,-18.97302 0.30944,-16.51081 11.58513,-29.60873 l 4.2029,-4.88212 -1.9529,-5.6762 c -2.28599,-6.64436 -2.48741,-11.24986 -0.6046,-13.82475 1.57148,-2.14913 3.6517,-1.28287 3.6517,1.52067 0,1.27431 0.68694,1.94098 2,1.94098 2.43027,0 2.45692,0.82152 -0.39734,-12.25 l -2.34733,-10.75 2.87233,-0.15 c 1.57979,-0.0825 3.41796,-0.195 4.08483,-0.25 0.66686,-0.055 1.52736,1.475 1.91221,3.4 3.27244,16.36851 2.60422,14.86893 6.53926,14.67508 l 3.55407,-0.17508 -0.60722,-5 c -0.33397,-2.75 -0.87444,-7.025 -1.20105,-9.5 -0.5249,-3.97766 -0.33662,-4.61608 1.62199,-5.5 1.80577,-0.81495 6.15255,-11.50258 23.48972,-57.75526 l 21.27392,-56.75526 12.32906,-16.49474 c 11.71533,-15.673658 12.50443,-16.501198 15.8523,-16.624578 8.4373,-0.31095 21.09063,0.29771 28.02032,1.347838 6.93322,1.05066 7.87831,1.49667 12.5661,5.93019 2.78796,2.63674 7.6173,5.96071 10.73186,7.3866 6.6407,3.04022 5.59939,0.36924 12.59708,32.31164 l 4.89548,22.34642 -8.51519,15.40358 c -4.68335,8.47196 -8.79806,15.40382 -9.14379,15.40412 -0.34574,3e-4 -0.47073,-6.12563 -0.27777,-13.61317 0.29165,-11.31685 0.0572,-14.26489 -1.38958,-17.4733 -0.95724,-2.12277 -2.06589,-3.65843 -2.46367,-3.41259 -0.39778,0.24584 -1.30106,2.59608 -2.00727,5.22275 -0.70622,2.62667 -2.35694,5.93999 -3.66827,7.36294 -1.31134,1.42294 -2.129,3.25232 -1.81704,4.06528 0.31196,0.81296 0.0987,2.57373 -0.47383,3.91282 -0.90972,2.1276 -0.96571,1.99323 -0.44386,-1.06528 l 0.59719,-3.5 -5.20186,5.12151 c -5.02847,4.9508 -5.17866,5.25883 -4.50585,9.24119 l 0.69602,4.11968 3.41359,-4.08581 c 1.87747,-2.24714 3.41359,-3.77721 3.41359,-3.4001 0,0.37711 -1.58256,2.53451 -3.51679,4.79423 -1.93424,2.25972 -3.36833,4.58126 -3.18687,5.15897 0.44006,1.40102 15.40683,10.34537 19.20366,11.47637 1.65,0.4915 2.4375,0.93422 1.75,0.98382 -2.45231,0.17694 -1.18289,2.04521 3.09177,4.55033 4.20618,2.46498 4.4482,2.49306 7.75,0.89899 1.87453,-0.90499 4.42669,-2.56506 5.67147,-3.68904 1.38878,-1.254 2.60961,-1.68166 3.15968,-1.10685 0.49304,0.51522 2.5636,6.33676 4.60124,12.93676 2.03764,6.6 4.15838,12.5625 4.71276,13.25 0.55439,0.6875 0.6858,1.25 0.29203,1.25 -0.39377,0 -5.28637,-4.33759 -10.87245,-9.63909 -7.31816,-6.94535 -11.93326,-10.45504 -16.51432,-12.55884 -3.4968,-1.60587 -6.57076,-2.70682 -6.83102,-2.44656 -0.26026,0.26026 0.0667,1.48201 0.72658,2.71501 1.70026,3.17696 8.02894,22.19613 7.5464,22.67868 -0.97588,0.97587 -9.58414,-1.07657 -9.58414,-2.28512 0,-0.73338 -4.28669,-2.95207 -9.75,-5.04636 -7.75234,-2.97176 -13.2331,-6.1761 -26.75,-15.63945 -9.35,-6.54605 -17.09306,-12.21159 -17.20679,-12.59009 -0.11374,-0.3785 2.02376,-2.44938 4.75,-4.60196 l 4.95679,-3.91377 V 187.3555 175.87856 l 6.13123,8.05492 6.13124,8.05492 5.61876,-0.51347 c 3.94573,-0.36057 6.06541,-1.08991 7.11877,-2.44943 0.825,-1.06478 3.90697,-4.28261 6.84882,-7.15074 6.25681,-6.10001 10.20161,-12.71477 7.58261,-12.71477 -1.26668,0 -1.05815,-0.65491 0.97968,-3.07673 3.72855,-4.43113 3.58232,-10.33658 -0.37047,-14.96104 -1.62765,-1.90423 -2.97765,-4.20159 -3,-5.10524 -0.0224,-0.90366 -0.68442,-1.89005 -1.47125,-2.19199 -0.78684,-0.30194 -2.23054,-3.08663 -3.20823,-6.18821 -1.39322,-4.4198 -2.78973,-6.48662 -6.45816,-9.55801 -2.57431,-2.15533 -5.23201,-3.91878 -5.90599,-3.91878 -1.9162,0 -12.99701,10.01553 -12.99701,11.74751 0,1.42985 -7.26141,15.54225 -10.90095,21.18576 -1.53575,2.38135 -1.60156,2.26398 -3.08414,-5.5 -1.40232,-7.34368 -1.70849,-7.95574 -4.1196,-8.23567 -2.47809,-0.2877 -2.63307,-0.0274 -3.18864,5.3555 -0.51476,4.98757 -0.21035,6.41552 2.56933,12.05241 2.09187,4.2421 3.74557,6.39449 4.91295,6.39449 3.3527,0 4.59957,4.70743 3.70823,14 l -0.81531,8.5 -6.74462,6.25 -6.74462,6.25 -11.04631,0.004 c -14.96067,0.005 -16.89268,1.12157 -18.46108,10.66866 -3.22903,19.65571 -5.62969,41.39024 -4.74609,42.96914 1.83364,3.27653 -2.10073,16.17721 -7.07408,23.19569 -2.46984,3.48547 -4.10237,6.68456 -3.62784,7.10907 0.47452,0.42451 6.71277,5.38878 13.86277,11.03171 8.80872,6.95203 13.79253,11.64188 15.45816,14.54641 2.04412,3.56453 3.09981,4.38914 6.26761,4.89569 2.09519,0.33504 4.99202,0.31235 6.4374,-0.0504 l 2.62796,-0.65957 -0.70031,6.39494 c -0.69963,6.38875 -1.62878,9.0961 -12.14738,35.39494 -3.07973,7.7 -5.63939,14.54271 -5.68814,15.20601 -0.0487,0.66331 -0.49373,0.95565 -0.98885,0.64965 -0.49512,-0.306 -0.77681,0.0513 -0.62597,0.79399 0.35077,1.72718 -1.08243,7.24174 -1.71713,6.60704 -0.26362,-0.26362 -0.0279,-1.66672 0.52392,-3.118 0.55178,-1.45128 0.82297,-2.63869 0.60267,-2.63869 -0.22031,0 -3.43182,3.825 -7.13667,8.5 -3.70486,4.675 -7.04484,8.5 -7.42218,8.5 -0.37733,0 -3.68218,-4.5 -7.34411,-10 z m -2.72362,-36.75 c -1.77289,-3.1625 -3.60591,-6.1775 -4.0734,-6.7 -0.46748,-0.5225 -0.84996,-4.0408 -0.84996,-7.81844 0,-9.14691 -6.23035,-37.63101 -9.39002,-42.92954 -1.30532,-2.18893 -3.78743,-4.83986 -5.51581,-5.89095 -3.63751,-2.2121 -4.75805,-2.43404 -3.3376,-0.66107 0.55081,0.6875 3.98091,10.31141 7.62245,21.38647 6.16222,18.74123 6.62004,20.75063 6.60738,29 l -0.0136,8.86353 5.76359,5.21102 c 3.16998,2.86605 5.90913,5.22855 6.08699,5.25 0.17787,0.0214 -1.12715,-2.54852 -2.90003,-5.71102 z M 368.65084,228.08263 c -2.28297,-5.73245 -4.5766,-10.87264 -5.09694,-11.42264 -0.91157,-0.96351 -0.8315,0.10817 0.86839,11.62279 l 0.60865,4.12279 -4.53882,-3.12279 c -5.97164,-4.10859 -6.8647,-3.94974 -2.62464,0.46685 2.88361,3.00366 13.88921,9.73445 14.69019,8.98421 0.13422,-0.12571 -1.62386,-4.91875 -3.90683,-10.65121 z M 211.0086,383.65999 c 0.0204,-1.65 0.2445,-2.20394 0.49804,-1.23097 0.25354,0.97297 0.23687,2.32297 -0.0371,3 -0.27393,0.67703 -0.48137,-0.11903 -0.46099,-1.76903 z m 72.83568,2 c 0,-0.55 0.43621,-1.675 0.96937,-2.5 0.53316,-0.825 0.96937,-1.05 0.96937,-0.5 0,0.55 -0.43621,1.675 -0.96937,2.5 -0.53316,0.825 -0.96937,1.05 -0.96937,0.5 z m 104.26903,-4.5 c 0,-3.025 0.18747,-4.2625 0.41659,-2.75 0.22913,1.5125 0.22913,3.9875 0,5.5 -0.22912,1.5125 -0.41659,0.275 -0.41659,-2.75 z m -21,-4 c 0,-3.025 0.18747,-4.2625 0.41659,-2.75 0.22913,1.5125 0.22913,3.9875 0,5.5 -0.22912,1.5125 -0.41659,0.275 -0.41659,-2.75 z m -155.96345,-4 c 0,-4.125 0.17651,-5.8125 0.39226,-3.75 0.21574,2.0625 0.21574,5.4375 0,7.5 -0.21575,2.0625 -0.39226,0.375 -0.39226,-3.75 z m 175.96345,-4 c 0,-3.025 0.18747,-4.2625 0.41659,-2.75 0.22913,1.5125 0.22913,3.9875 0,5.5 -0.22912,1.5125 -0.41659,0.275 -0.41659,-2.75 z m -19.01365,-5.5 c 0.008,-2.75 0.20172,-3.75631 0.43157,-2.23625 0.22986,1.52006 0.22371,3.77006 -0.0136,5 -0.23736,1.22994 -0.42542,-0.0138 -0.41792,-2.76375 z m 18.01365,-5.5 c 0,-3.025 0.18747,-4.2625 0.41659,-2.75 0.22913,1.5125 0.22913,3.9875 0,5.5 -0.22912,1.5125 -0.41659,0.275 -0.41659,-2.75 z m -173.92559,-6.5 c 0.002,-6.05 0.16696,-8.39607 0.36601,-5.21349 0.19905,3.18258 0.1972,8.13258 -0.004,11 -0.20131,2.86742 -0.36417,0.26349 -0.36191,-5.78651 z m 140.71112,3.42298 c -1.32814,-1.10576 -3.01564,-1.76579 -3.75,-1.46673 -3.66607,1.49298 -4.53521,1.49773 -1.96161,0.0107 2.73454,-1.58 3.01081,-1.55889 5.70951,0.43635 3.59651,2.65902 4.06571,2.63166 6.91691,-0.40331 1.62415,-1.72883 3.29738,-2.45063 5.42431,-2.33996 l 3.07569,0.16003 -3.12656,0.39412 c -1.71961,0.21676 -4.16055,1.49475 -5.42431,2.83996 -2.76188,2.93989 -3.71434,2.99107 -6.86394,0.36883 z m 16.0727,0.077 c 0,-1.375 0.22698,-1.9375 0.50439,-1.25 0.27741,0.6875 0.27741,1.8125 0,2.5 -0.27741,0.6875 -0.50439,0.125 -0.50439,-1.25 z m -27.65081,-0.98855 c -0.35034,-0.56686 0.0511,-0.7345 0.94098,-0.39301 1.73242,0.66479 2.04939,1.38156 0.61096,1.38156 -0.51754,0 -1.21592,-0.44485 -1.55194,-0.98855 z m -14.25708,-1.23192 c -1.2375,-0.59683 -2.25,-1.47675 -2.25,-1.95538 0,-0.47863 1.07735,-0.16433 2.39411,0.69845 1.47695,0.96773 3.48818,1.35376 5.25,1.00768 2.31088,-0.45394 2.47421,-0.38064 0.85589,0.38409 -2.5647,1.21192 -3.49932,1.19176 -6.25,-0.13484 z m -2.09211,-5.77951 c 0,-1.375 0.22698,-1.9375 0.50439,-1.25 0.27741,0.6875 0.27741,1.8125 0,2.5 -0.27741,0.6875 -0.50439,0.125 -0.50439,-1.25 z m -1.07894,-4.58333 c 0.048,-1.16495 0.28494,-1.4019 0.60416,-0.60417 0.28887,0.72187 0.25335,1.58438 -0.0789,1.91667 -0.33229,0.33229 -0.56864,-0.25834 -0.52522,-1.3125 z m -0.079,-3.09502 c 0,-0.55642 1.0125,-1.86892 2.25,-2.91666 l 2.25,-1.90499 -1.98934,2.5 c -1.09414,1.375 -2.10664,2.6875 -2.25,2.91667 -0.14336,0.22916 -0.26066,-0.0386 -0.26066,-0.59502 z m -110.8013,-7.44921 c -0.16232,-6.231 0.12171,-7.87884 1.5513,-9 1.53574,-1.20441 1.60283,-1.18332 0.54795,0.17224 -0.66112,0.84958 -1.35921,4.89958 -1.5513,9 l -0.34926,7.45532 z m 109.19832,-7.41857 c -2.19598,-2.87908 -2.46012,-3.77258 -1.40419,-4.75 1.02166,-0.94569 1.1435,-0.92653 0.56815,0.0894 -0.42972,0.75874 0.35726,2.72187 1.90419,4.75 1.45013,1.90123 2.41161,3.45678 2.13661,3.45678 -0.275,0 -1.71714,-1.59576 -3.20476,-3.54613 z m -0.12668,-6.98055 c 0.42369,-0.46603 -0.92631,-2.64043 -3,-4.83199 -3.06793,-3.24233 -3.22419,-3.57324 -0.83874,-1.77623 4.24606,3.19865 5.92598,5.81006 4.32912,6.72958 -0.69339,0.39928 -0.91407,0.34467 -0.49038,-0.12136 z m -9.86535,-12.72332 -1.90499,-2.25 2.25,1.90499 c 1.2375,1.04774 2.25,2.06024 2.25,2.25 0,0.80025 -0.80479,0.20945 -2.59501,-1.90499 z m -102.63708,-1.47473 c 1.79735,-0.22256 4.49735,-0.21797 6,0.0102 1.50265,0.22818 0.0321,0.41027 -3.26791,0.40466 -3.3,-0.006 -4.52944,-0.1923 -2.73209,-0.41486 z m -8.01791,-0.9646 c -2.00684,-0.52444 -2.28137,-1.86423 -0.59549,-2.90616 0.68238,-0.42174 0.8843,-0.27633 0.49377,0.35557 -0.37227,0.60235 0.54258,1.5085 2.09549,2.07556 2.74899,1.00382 1.32656,1.34273 -1.99377,0.47503 z m 184.51056,-7.71633 c 0.31984,-5.18298 -0.0505,-10.89387 -1.02956,-15.87776 -1.28806,-6.55667 -1.32273,-8.40861 -0.21997,-11.75 1.98333,-6.00956 6.27783,-5.27419 7.50848,1.28571 1.06381,5.67059 2.02545,4.4911 1.63137,-2.00093 -0.61931,-10.20225 0.64825,-5.12343 1.86192,7.4603 1.16235,12.0517 1.14339,12.31251 -1.4642,20.14241 -2.45143,7.36097 -2.86324,7.96511 -5.71468,8.38361 l -3.07287,0.451 z m -166.16017,5.70114 c 0.72815,-1.21249 1.53915,-1.98927 1.80223,-1.72619 0.26308,0.26308 -0.33267,1.25511 -1.3239,2.20452 -1.72194,1.64929 -1.74325,1.62798 -0.47833,-0.47833 z m -6,-5 c 0.72815,-1.21249 1.53915,-1.98927 1.80223,-1.72619 0.26308,0.26308 -0.33267,1.25511 -1.3239,2.20452 -1.72194,1.64929 -1.74325,1.62798 -0.47833,-0.47833 z m 1.97856,-4.87881 c 0.048,-1.16495 0.28494,-1.4019 0.60416,-0.60417 0.28887,0.72187 0.25335,1.58438 -0.0789,1.91667 -0.33229,0.33229 -0.56864,-0.25834 -0.52522,-1.3125 z m 13.30864,-4.94788 c -0.91218,-1.39216 -1.4766,-2.71311 -1.25427,-2.93544 0.22233,-0.22233 1.16235,0.91671 2.08895,2.53121 2.06367,3.59573 1.45092,3.89249 -0.83468,0.40423 z m -20.38759,-0.27607 -4.5,-1.69272 4.5,-0.32344 c 2.475,-0.17788 6.20101,0.2361 8.28003,0.91998 2.80516,0.92273 4.07083,0.9526 4.90762,0.11581 1.43134,-1.43134 -0.64396,-4.21235 -3.14343,-4.21235 -0.94099,0 -2.02553,-0.31464 -2.41008,-0.6992 -0.38456,-0.38456 -2.80773,-0.56953 -5.38482,-0.41105 -3.24966,0.19983 -5.09583,0.8738 -6.02417,2.19919 -1.64677,2.3511 -3.54327,2.43982 -5.35271,0.2504 -1.25567,-1.51935 -1.18175,-1.5419 0.86877,-0.26494 2.0186,1.25708 2.3926,1.17957 3.7654,-0.78038 1.0324,-1.47396 3.05186,-2.39592 6.25879,-2.85738 2.60403,-0.37471 5.55539,-1.40112 6.55858,-2.28091 1.39118,-1.22004 1.7471,-1.27134 1.5,-0.21619 -0.18239,0.77882 0.7292,1.65101 2.08587,1.99574 3.52203,0.89493 6.83438,5.6591 5.45833,7.85075 -1.50881,2.4031 -11.44246,2.6357 -17.36818,0.40669 z m -7.5,-10.26055 c -1.65,-1.0569 -3.8426,-1.92401 -4.87244,-1.92691 -1.63957,-0.005 -1.70176,0.21239 -0.5,1.74474 1.24196,1.58363 1.20712,1.62039 -0.36655,0.38669 -0.95644,-0.74982 -1.46437,-1.80765 -1.12872,-2.35074 0.78224,-1.26569 6.26038,-0.187 8.30209,1.63475 0.86109,0.76832 2.69062,1.6017 4.06562,1.85194 l 2.5,0.455 -2.5,0.0631 c -1.375,0.0347 -3.85,-0.80165 -5.5,-1.85855 z m 18.5,-0.24463 c 0,-0.30654 0.43738,-1.70773 0.97195,-3.11376 1.71672,-4.51531 0.47858,-5.57378 -6.51992,-5.57378 -3.82111,0 -6.62602,-0.4725 -7.07006,-1.19098 -0.40484,-0.65504 -0.2064,-1.36754 0.44098,-1.58334 0.64738,-0.21579 1.18394,-1.14235 1.19236,-2.05901 0.0124,-1.35202 0.18213,-1.40322 0.89893,-0.2712 0.61895,0.97751 3.16329,1.42679 8.49473,1.5 5.27356,0.0724 7.47637,0.45647 7.1724,1.25044 -0.2413,0.63025 -0.99364,2.9981 -1.67189,5.26188 -1.02459,3.41978 -3.90948,7.68478 -3.90948,5.77975 z m -13.29705,-21.4797 c -2.03662,-2.08569 -3.70295,-4.05775 -3.70295,-4.38236 0,-0.3246 1.74706,1.15687 3.88235,3.29217 3.46192,3.46191 4.40949,3.87891 8.75,3.85055 2.68454,-0.0175 5.73823,-0.69028 6.80878,-1.5 1.15404,-0.87288 3.78966,-1.39736 6.5,-1.29349 l 4.55887,0.1747 -4.42527,0.39136 c -2.4339,0.21524 -5.34653,1.03663 -6.47251,1.82529 -1.12598,0.78867 -4.33078,1.43394 -7.12178,1.43394 -4.5563,0 -5.45271,-0.38728 -8.77749,-3.79216 z m -7.06458,1.29216 c 0.31659,-0.825 1.03256,-1.5 1.59106,-1.5 0.58531,0 0.48812,0.63541 -0.22943,1.5 -0.68469,0.825 -1.40067,1.5 -1.59106,1.5 -0.19039,0 -0.0871,-0.675 0.22943,-1.5 z m 45.22931,-0.74425 c 0.75222,-0.95934 1.15212,-2.87184 0.88867,-4.25 -0.26345,-1.37816 -0.0914,-2.50575 0.38232,-2.50575 1.59437,0 0.8785,5.74165 -0.88867,7.12756 -1.58479,1.24288 -1.62089,1.20778 -0.38232,-0.37181 z m -40.78873,-8.33908 c 0.048,-1.16495 0.28494,-1.4019 0.60416,-0.60417 0.28887,0.72187 0.25335,1.58438 -0.0789,1.91667 -0.33229,0.33229 -0.56864,-0.25834 -0.52522,-1.3125 z m 16.2119,-0.30754 c 0.11503,-0.35518 -2.85238,-3.56253 -6.59425,-7.12745 -6.71954,-6.40179 -6.78915,-6.52189 -5.64781,-9.74419 0.63557,-1.79438 0.87522,-3.99314 0.53255,-4.88612 -0.57408,-1.49603 -0.76509,-1.49505 -2.43093,0.0125 -2.57327,2.32878 -2.74733,2.13322 -2.32653,-2.61388 l 0.37672,-4.25 -4.53414,4.39328 -4.53414,4.39328 2.18384,1.91318 2.18384,1.91319 -2.19431,-1.06184 c -1.20687,-0.58402 -2.42358,-1.43282 -2.70381,-1.88624 -0.28023,-0.45342 1.94471,-3.24813 4.94431,-6.21046 2.99959,-2.96234 5.45381,-5.97151 5.45381,-6.68705 0,-0.71555 1.96523,-3.20592 4.36718,-5.53416 3.96994,-3.84813 4.42926,-4.80168 5.04966,-10.48318 0.37536,-3.4375 1.08397,-6.25 1.57469,-6.25 0.49072,0 1.48088,2.01001 2.20035,4.46669 l 1.30812,4.46669 9.75636,-7.96669 c 5.36599,-4.38168 9.97849,-7.96669 10.25,-7.96669 1.26357,0 0.28663,6.48546 -1.50636,10 -2.45537,4.81293 -2.50438,5.99359 -0.25,6.02224 0.9625,0.0122 2.875,0.96563 4.25,2.11867 l 2.5,2.09643 -2.59196,-1.53817 c -4.0784,-2.42028 -13.95847,-1.14375 -21.90804,2.83057 -8.04599,4.02253 -10.82021,6.77704 -9.01557,8.9515 0.69325,0.83532 1.88036,1.51876 2.63801,1.51876 1.88573,0 1.78227,5.3167 -0.17719,9.10588 -0.88408,1.70962 -1.42329,4.7717 -1.25,7.09854 0.4034,5.41653 5.50724,9.78229 12.33591,10.55198 3.9091,0.44061 5.81683,-0.0221 11.57469,-2.80761 6.64816,-3.21617 6.89415,-3.46478 6.89415,-6.96767 0,-2.50403 0.719,-4.30796 2.31445,-5.80681 2.80645,-2.63652 2.84419,-2.63861 5.53254,-0.30701 4.52432,3.92391 1.82623,10.51119 -6.58812,16.08462 -4.55764,3.01885 -5.10616,3.13156 -14.45727,2.97044 -5.34594,-0.0921 -9.62578,-0.45806 -9.51075,-0.81323 z m -21.29085,-6.66815 c 0,-0.85746 0.45734,-1.27636 1.01631,-0.9309 0.55897,0.34546 0.75742,1.04702 0.44098,1.55902 -0.85723,1.38704 -1.45729,1.12841 -1.45729,-0.62812 z m 1.15789,-6.44098 c 0,-1.375 0.22698,-1.9375 0.50439,-1.25 0.27741,0.6875 0.27741,1.8125 0,2.5 -0.27741,0.6875 -0.50439,0.125 -0.50439,-1.25 z m 50.84211,-9.93657 c 0,-1.76947 0.42444,-2.91915 0.95633,-2.59042 0.52598,0.32507 0.70283,1.25163 0.39301,2.05902 -0.30983,0.80738 -0.32634,1.46797 -0.0367,1.46797 0.28965,0 1.28364,-2.27915 2.20888,-5.06478 0.92524,-2.78563 1.86009,-4.88695 2.07745,-4.66958 0.71472,0.71471 -2.71302,9.58413 -4.17186,10.79486 -1.18529,0.98369 -1.42711,0.64529 -1.42711,-1.99707 z m -2.51271,-18.51876 c -2.53393,-8.5806 -3.07068,-9.55239 -5.80193,-10.50451 -1.65532,-0.57705 -2.72613,-1.33272 -2.37958,-1.67927 0.34655,-0.34655 1.89433,-0.10643 3.43951,0.53361 2.43307,1.00781 3.12306,2.30037 5.15069,9.6489 1.2877,4.66686 2.76625,8.74784 3.28566,9.06886 0.51941,0.32101 1.74005,-0.1364 2.71252,-1.01648 1.90705,-1.72585 3.115,-1.20958 3.09053,1.32089 -0.0131,1.35608 -0.14788,1.37375 -0.93895,0.12309 -0.7968,-1.2597 -1.18316,-1.22537 -2.81343,0.25 -1.03939,0.94063 -2.12896,1.71024 -2.42129,1.71024 -0.29232,0 -1.788,-4.2549 -3.32373,-9.45533 z m 123.70846,-3.73565 0.19574,-11.30902 0.60851,10.5 c 0.33468,5.775 0.69659,10.02351 0.80425,9.44113 0.10766,-0.58238 0.89253,-1.93238 1.74416,-3 1.39884,-1.75362 1.39952,-1.63332 0.007,1.24546 -2.95614,6.11173 -3.5631,4.86926 -3.35977,-6.87757 z m -125.95908,6.43067 c -1.16756,-2.49062 -1.13981,-2.5714 0.36607,-1.06552 0.89617,0.89617 1.46467,2.10889 1.26333,2.69493 -0.20134,0.58604 -0.93457,-0.1472 -1.6294,-1.62941 z m 132.26143,-6.23601 c 0.8522,-1.64797 2.84542,-5.19428 4.42937,-7.88067 1.58396,-2.6864 3.09606,-5.72555 3.36022,-6.75368 0.36788,-1.43176 0.50746,-1.49032 0.59631,-0.25017 0.10852,1.51472 -8.60165,17.88084 -9.51631,17.88084 -0.23048,0 0.27821,-1.34834 1.13041,-2.99632 z m -9.54394,-16.08933 c -0.61391,-1.1471 -0.92784,-2.274 -0.69762,-2.50422 0.23022,-0.23022 0.93203,0.70832 1.55958,2.08564 1.37807,3.02454 0.70709,3.35038 -0.86196,0.41858 z m -152.73372,-2.09396 c -1.6508,-1.6508 -1.5348,-3.92649 0.33631,-6.59788 1.95135,-2.78594 3.06143,-2.80456 4.52178,-0.0759 0.94027,1.75692 0.8443,2.31707 -0.52863,3.0854 -0.92262,0.51632 -1.99959,1.80951 -2.39328,2.87375 -0.56337,1.52294 -0.97567,1.67511 -1.93618,0.7146 z m 4.10039,-6.42684 c -0.29412,-0.76645 -0.92078,-1.39355 -1.39259,-1.39355 -1.13951,0 -2.92819,3.42599 -2.92819,5.60857 0,1.50493 0.32806,1.43187 2.42777,-0.54071 1.33527,-1.25442 2.18712,-2.90786 1.89301,-3.67431 z m 40.67922,6.82074 c 0,-0.43215 0.86696,-0.78572 1.92658,-0.78572 1.05962,0 1.70806,0.35357 1.44098,0.78572 -0.26707,0.43214 -1.13404,0.78571 -1.92658,0.78571 -0.79254,0 -1.44098,-0.35357 -1.44098,-0.78571 z m -4.3152,-6.08364 -2.81519,-1.85616 3.42438,-2.02044 c 3.37801,-1.99308 3.41356,-2.08635 2.62481,-6.88725 -0.43977,-2.67674 -0.8264,-5.69123 -0.85919,-6.69886 -0.053,-1.62885 -0.8363,-1.79523 -7.06186,-1.5 -3.85124,0.18263 -7.00124,-0.005 -7,-0.41794 0.001,-0.4125 0.84428,-0.75 1.87342,-0.75 1.49112,0 2.00633,-1.01889 2.53664,-5.01657 0.60081,-4.52915 0.36576,-5.45219 -2.41921,-9.5 -1.69657,-2.46589 -2.67576,-4.48343 -2.17596,-4.48343 0.4998,0 5.58392,2.19305 11.29804,4.87345 10.23341,4.80031 10.43059,4.95822 13.13932,10.52215 2.58496,5.30969 3.66947,11.6029 2,11.60562 -0.4125,6.7e-4 -2.07055,1.1369 -3.68456,2.52494 -1.61401,1.38804 -4.85029,3.7357 -7.19174,5.21701 l -4.25718,2.69329 2.69174,1.77518 c 1.48046,0.97635 2.24174,1.77518 1.69174,1.77518 -0.55,0 -2.26684,-0.83527 -3.8152,-1.85617 z m 7.41376,-0.4465 c -1.14948,-2.14782 -1.10965,-2.83023 0.28109,-4.81579 1.89958,-2.71202 2.19619,-1.77037 0.37035,1.17572 -1.01625,1.63978 -0.99346,2.17661 0.12188,2.87078 0.75454,0.46961 1.19055,1.39785 0.96891,2.06277 -0.22692,0.68075 -0.98811,0.11562 -1.74223,-1.29348 z m -22.79176,-17.56449 c -0.84873,-1.35904 -0.67467,-2.29588 0.77761,-4.18532 1.02912,-1.33889 1.88112,-2.74152 1.89335,-3.11695 0.0445,-1.36621 -3.90096,-1.8823 -5.71747,-0.74787 -1.51906,0.94867 -2.82847,0.67625 -7.06254,-1.46931 -2.85876,-1.44865 -5.19775,-2.8589 -5.19775,-3.1339 0,-0.275 2.2321,0.63109 4.96022,2.01353 4.09118,2.07316 5.38303,2.32089 7.37351,1.41397 1.76909,-0.80606 2.98092,-0.79578 4.53978,0.0385 2.63681,1.41118 2.65066,2.13161 0.10323,5.37014 -1.84495,2.34547 -1.8777,2.65361 -0.37158,3.49647 0.90842,0.50838 1.23395,1.18249 0.72341,1.49802 -0.51055,0.31554 -1.42034,-0.21424 -2.02177,-1.17727 z m 2.57697,-12.86966 c -1.93716,-2.0625 -5.45549,-6.225 -7.81849,-9.25 -4.61368,-5.9062 -1.82813,-3.07616 6.74368,6.85137 5.90602,6.84012 6.50782,8.18315 1.07481,2.39863 z m -25.88377,-3.75 c -5.60047,-2.93203 -7.50013,-3.40967 -13.72695,-3.45148 -6.63141,-0.0445 -7.36193,0.15749 -8.86501,2.45148 -2.03499,3.1058 -3.44479,3.21286 -3.29204,0.25 0.09,-1.74478 0.22014,-1.84954 0.57977,-0.46655 0.40871,1.57174 0.70033,1.48271 2.45658,-0.75 1.79128,-2.27724 2.6959,-2.53345 8.94519,-2.53345 5.95984,0 7.94817,0.50147 13.92742,3.51257 3.83627,1.93192 6.97504,3.73192 6.97504,4 0,0.67421 0.23669,0.77607 -7,-3.01257 z m -26.92105,-5.08333 c 0.048,-1.16495 0.28494,-1.4019 0.60416,-0.60417 0.28887,0.72187 0.25335,1.58437 -0.0789,1.91667 -0.33229,0.33229 -0.56864,-0.25834 -0.52522,-1.3125 z m -1.07895,-3.09502 c 0,-0.55642 1.0125,-1.86892 2.25,-2.91666 l 2.25,-1.90499 -1.98934,2.5 c -1.09414,1.375 -2.10664,2.6875 -2.25,2.91667 -0.14336,0.22916 -0.26066,-0.0386 -0.26066,-0.59502 z m 33.5,-4.32165 c -1.26064,-0.54172 -1.44548,-0.85943 -0.5,-0.85943 0.825,0 2.4,0.38674 3.5,0.85943 1.26064,0.54172 1.44548,0.85943 0.5,0.85943 -0.825,0 -2.4,-0.38674 -3.5,-0.85943 z m -26.5,-0.96862 c 0,-0.53273 -0.7875,-0.721 -1.75,-0.41836 -1.50806,0.47418 -1.48393,0.33327 0.17455,-1.01926 1.75019,-1.42732 1.81788,-2.03161 0.74715,-6.67028 -1.05005,-4.54904 -0.97512,-5.35793 0.69269,-7.47821 2.15739,-2.74268 3.13561,-2.24676 3.13561,1.58962 0,2.44759 0.58756,2.87753 6.25,4.57337 l 6.25,1.87182 -4.49819,0.32958 c -4.97715,0.36468 -7.51049,2.09664 -8.43093,5.76394 -0.58494,2.3306 -2.57088,3.4567 -2.57088,1.45778 z m 20.68264,-0.68208 c -0.35789,-0.35788 -3.47039,-0.97131 -6.91667,-1.36317 -6.19427,-0.70433 -6.20875,-0.71318 -1.26597,-0.77323 4.44877,-0.054 14.34741,2.52215 10.41667,2.71102 -0.87084,0.0418 -1.87615,-0.21673 -2.23403,-0.57462 z m -15.87014,-1.03241 c 0.72187,-0.28887 1.58438,-0.25335 1.91667,0.0789 0.33229,0.33229 -0.25834,0.56864 -1.3125,0.52522 -1.16495,-0.048 -1.4019,-0.28494 -0.60417,-0.60416 z"
       id="path1706" />
    <path
       style="fill:#000000"
       d="m 407.31888,442.56521 c -6.78507,-9.85391 -9.12502,-14.05857 -9.06223,-16.28394 0.0837,-2.96615 0.0934,-2.97125 0.85799,-0.45275 0.62129,2.04644 12.23171,19.95043 15.09574,23.27857 0.39086,0.4542 0.53947,-0.4458 0.33024,-2 l -0.38042,-2.82582 1.08793,2.75 c 0.59836,1.5125 1.4145,2.75 1.81365,2.75 1.05657,0 3.88497,-15.71384 3.34079,-18.56054 -0.25403,-1.32888 -0.79542,-2.21001 -1.20307,-1.95807 -0.40766,0.25195 -0.54597,-0.7658 -0.30736,-2.26165 0.35092,-2.20001 0.21618,-2.4331 -0.70514,-1.21974 -0.89274,1.17573 -1.00464,0.74337 -0.51761,-2 0.48371,-2.72469 0.37188,-3.16772 -0.50483,-2 -0.91184,1.21451 -1.00524,1.07024 -0.49075,-0.758 0.34949,-1.2419 0.16587,-4.6169 -0.40805,-7.5 -3.53101,-17.73831 -4.34223,-21.54577 -5.16496,-24.242 -0.84312,-2.76301 -7.72259,-35.10925 -11.85016,-55.71762 -1.78511,-8.91284 -1.27515,-12.01812 1.58399,-9.64524 2.0362,1.6899 7.92466,0.1377 9.6882,-2.55381 1.41611,-2.16124 1.39638,-2.49976 -0.23146,-3.97294 -0.9787,-0.88571 -3.43153,-1.61039 -5.45072,-1.61039 -2.01919,0 -3.67126,-0.45 -3.67126,-1 0,-1.81068 7.10902,-1.05856 10.09563,1.06809 3.66124,2.60704 3.65721,4.33292 -0.0187,8.00883 -2.27479,2.2748 -3.82726,2.92308 -7,2.92308 -2.2423,0 -4.05928,0.3375 -4.03772,0.75 0.0216,0.4125 0.84671,4.575 1.83367,9.25 0.98696,4.675 3.70681,18.175 6.04411,30 2.33731,11.825 5.14818,25.325 6.24639,30 1.09821,4.675 3.35781,14.77298 5.02132,22.43996 l 3.02458,13.93995 -1.75112,7.43588 c -0.96312,4.08973 -1.79771,9.02957 -1.85464,10.97742 -0.0569,1.94785 -0.59933,3.7065 -1.20532,3.90811 -0.606,0.2016 -5.21791,-5.61122 -10.2487,-12.91738 z m 5.92946,-2.36727 c 0.048,-1.16495 0.28494,-1.4019 0.60416,-0.60417 0.28887,0.72187 0.25335,1.58438 -0.0789,1.91667 -0.33229,0.33229 -0.56864,-0.25834 -0.52522,-1.3125 z m -0.92106,-7.41667 c 0,-1.375 0.22698,-1.9375 0.50439,-1.25 0.27741,0.6875 0.27741,1.8125 0,2.5 -0.27741,0.6875 -0.50439,0.125 -0.50439,-1.25 z m -1.07894,-6.58333 c 0.048,-1.16495 0.28494,-1.4019 0.60416,-0.60417 0.28887,0.72187 0.25335,1.58438 -0.0789,1.91667 -0.33229,0.33229 -0.56864,-0.25834 -0.52522,-1.3125 z m -0.92106,-7.41667 c 0,-1.375 0.22698,-1.9375 0.50439,-1.25 0.27741,0.6875 0.27741,1.8125 0,2.5 -0.27741,0.6875 -0.50439,0.125 -0.50439,-1.25 z m -36.40789,-9.34373 c -3.1625,-5.69224 -5.75,-10.86855 -5.75,-11.5029 0,-2.55136 1.62023,-0.83268 3.72103,3.94712 1.45706,3.31514 2.62812,4.80176 3.40451,4.32192 0.73589,-0.4548 0.91845,-0.30261 0.48272,0.40241 -0.87022,1.40806 1.16702,5.4321 2.37281,4.68688 0.48441,-0.29938 1.20636,-0.0174 1.60434,0.6265 0.45192,0.73122 0.29014,0.90292 -0.4309,0.45729 -1.45334,-0.89821 -1.45122,-0.34081 0.0109,2.8682 1.13527,2.49165 1.25495,2.37003 4.62801,-4.70295 1.90444,-3.99341 3.48,-7.82324 3.50126,-8.51074 0.0507,-1.63984 1.70532,-1.62988 1.70532,0.0103 0,2.44526 -6.9512,17.24309 -8.21707,17.49263 -0.71609,0.14116 -3.82348,-4.31988 -7.03293,-10.09663 z m 35.32895,2.7604 c 0.048,-1.16495 0.28494,-1.4019 0.60416,-0.60417 0.28887,0.72187 0.25335,1.58438 -0.0789,1.91667 -0.33229,0.33229 -0.56864,-0.25834 -0.52522,-1.3125 z m 4,-3 c 0.048,-1.16495 0.28494,-1.4019 0.60416,-0.60417 0.28887,0.72187 0.25335,1.58438 -0.0789,1.91667 -0.33229,0.33229 -0.56864,-0.25834 -0.52522,-1.3125 z m -5,-3 c 0.048,-1.16495 0.28494,-1.4019 0.60416,-0.60417 0.28887,0.72187 0.25335,1.58438 -0.0789,1.91667 -0.33229,0.33229 -0.56864,-0.25834 -0.52522,-1.3125 z m -13.33783,-11.91667 c -0.39325,-4.4 -1.70451,-19.80876 -2.91391,-34.24169 -1.2094,-14.43294 -2.53305,-26.78235 -2.94145,-27.44315 -0.57692,-0.93347 -1.34254,-0.92807 -3.43264,0.0242 -2.26947,1.03405 -2.5998,1.67721 -2.11257,4.11333 0.31763,1.58819 0.89301,8.88604 1.27861,16.21745 0.64957,12.35037 0.5791,13.22898 -0.95904,11.95738 -0.91307,-0.75485 -1.65323,-1.87985 -1.64481,-2.5 0.008,-0.62016 0.49477,-0.45256 1.08078,0.37244 2.49159,3.50777 -0.25953,-7.13632 -3.02046,-11.68614 -1.60664,-2.64762 -3.16433,-6.83886 -3.46153,-9.31386 -0.5263,-4.38271 -0.51334,-4.40877 0.49699,-1 0.57055,1.925 2.14561,5.75 3.50012,8.5 2.35591,4.78312 2.44116,4.84818 1.96535,1.5 -0.27356,-1.925 -0.7739,-6.93741 -1.11186,-11.13869 l -0.61448,-7.63869 4.59719,-1.75568 c 2.52845,-0.96563 4.84523,-1.50764 5.1484,-1.20446 0.49096,0.49096 2.74033,21.99145 3.68653,35.23752 0.26551,3.71688 0.40342,3.02631 0.53741,-2.69098 0.0991,-4.23004 0.51775,-7.89831 0.93025,-8.1517 1.02772,-0.63131 1.36826,29.86335 0.45052,40.34268 l -0.74441,8.5 -0.71499,-8 z m 0.97513,-17.25 c -0.22912,-1.5125 -0.41659,-0.275 -0.41659,2.75 0,3.025 0.18747,4.2625 0.41659,2.75 0.22913,-1.5125 0.22913,-3.9875 0,-5.5 z m 12.3627,23.16667 c 0.048,-1.16495 0.28494,-1.4019 0.60416,-0.60417 0.28887,0.72187 0.25335,1.58438 -0.0789,1.91667 -0.33229,0.33229 -0.56864,-0.25834 -0.52522,-1.3125 z m 1,-8 c 0.048,-1.16495 0.28494,-1.4019 0.60416,-0.60417 0.28887,0.72187 0.25335,1.58438 -0.0789,1.91667 -0.33229,0.33229 -0.56864,-0.25834 -0.52522,-1.3125 z m -144.07895,-13.20052 -6.5,-9.71615 -7.81996,-0.29332 c -7.35039,-0.27571 -8.5971,0.01 -20.76163,4.75 -7.11791,2.77382 -13.61143,5.04332 -14.43004,5.04332 -1.81395,0 -1.92269,-5.36427 -0.50674,-25 0.91089,-12.63179 1.81864,-33.82139 1.95758,-45.69572 0.0586,-5.00541 0.34983,-5.53606 7.95148,-14.48664 l 7.89069,-9.29091 -2.53088,-2.34554 c -1.99103,-1.84523 -2.71102,-2.06138 -3.37538,-1.01337 -0.46447,0.7327 -0.85139,1.66968 -0.85981,2.08218 -0.008,0.4125 -0.45406,0.75 -0.99031,0.75 -0.53625,0 -0.72246,-1.26271 -0.4138,-2.80601 0.40307,-2.01532 0.0438,-3.19932 -1.275,-4.20178 -1.57403,-1.19647 -1.65773,-1.19561 -0.5862,0.006 3.38962,3.80118 -0.47923,7.185 -5.72877,5.01056 -1.55724,-0.64503 -3.88657,-0.98455 -5.17629,-0.75449 -1.77386,0.31642 -1.29475,0.61347 1.9673,1.21975 2.72041,0.50562 3.96191,1.1518 3.36321,1.7505 -1.44799,1.44799 -11.92529,-2.15993 -12.48472,-4.29918 -0.69291,-2.64972 1.24183,-3.92537 5.95351,-3.92537 5.80753,0 9.31199,-3.09501 9.62449,-8.5 l 0.23127,-4 -7.64368,-0.29015 -7.64369,-0.29015 -2.76835,-4.18327 c -2.58786,-3.91051 -4.08796,-8.83649 -2.60288,-8.5472 0.36223,0.0706 1.44055,-0.21417 2.39626,-0.63272 1.1411,-0.49975 3.26211,0.13237 6.17807,1.84124 5.03479,2.95058 11.60766,3.48391 13.58427,1.10225 0.82353,-0.9923 3.06104,-1.5 6.61065,-1.5 4.96842,0 5.34813,-0.16662 5.12756,-2.25 -0.20889,-1.97303 0.27811,-2.28752 3.9562,-2.55478 4.07879,-0.29638 4.21247,-0.20853 4.84944,3.18684 0.51096,2.72365 1.32582,3.72546 3.70482,4.55478 1.67738,0.58474 3.25948,1.06316 3.51578,1.06316 0.2563,0 0.15691,-2.47388 -0.22087,-5.49751 -0.64104,-5.1307 -0.53196,-5.55731 1.63477,-6.39366 1.9799,-0.76424 5.45827,-9.26555 23.62983,-57.75249 l 21.30818,-56.85632 12.46927,-16.75 12.46927,-16.75 12.22255,1.7e-4 c 6.82014,1e-4 15.757,0.6765 20.21898,1.53032 7.16585,1.37121 8.46422,1.98413 12.5,5.90078 2.47696,2.40384 7.28241,5.75468 10.67877,7.44631 3.39635,1.69163 6.42096,3.8737 6.72135,4.84905 1.36693,4.43848 10.60345,47.80933 10.60345,49.78943 0,2.25274 -12.15349,24.53651 -14.39814,26.39941 -0.94283,0.78248 -1.28037,-1.05652 -1.48297,-8.07959 -0.14426,-5.00095 -0.62509,-9.82237 -1.06851,-10.71426 -0.44342,-0.89189 -1.52887,-3.30912 -2.41212,-5.37162 -0.88325,-2.0625 -2.0047,-3.75 -2.49212,-3.75 -0.48742,0 -1.48221,2.12868 -2.21065,4.73039 -0.99573,3.5564 -3.15349,6.68622 -8.69433,12.61106 -4.65232,4.97473 -7.161,8.42505 -6.80337,9.35702 0.31159,0.812 0.84044,3.18928 1.17521,5.28284 0.65456,4.09337 2.74286,6.11894 10.26459,9.95624 2.37392,1.21108 4.09122,2.42697 3.81622,2.70197 -0.275,0.275 -2.34361,-0.44054 -4.5969,-1.59008 -2.2533,-1.14955 -4.09691,-1.92309 -4.09691,-1.71899 0,1.22158 2.47285,7.41045 3.46404,8.66955 1.64034,2.08371 8.53596,19.21323 8.53596,21.20431 0,0.89596 -0.5625,1.82992 -1.25,2.07545 -1.89579,0.67707 -0.66021,1.46524 3.52158,2.24639 l 3.77157,0.70453 -4.01299,-11.36534 c -4.31586,-12.2231 -4.89196,-15.41002 -2.6287,-14.54153 0.81665,0.31338 1.59997,-0.22126 1.87715,-1.2812 0.49048,-1.87561 1.20622,-1.84274 10.79597,0.49568 1.91207,0.46625 3.36453,-0.0369 5.64436,-1.95525 1.68837,-1.42067 3.51845,-2.58304 4.06684,-2.58304 0.54838,0 1.66563,1.6875 2.48277,3.75 2.13045,5.37739 6.73145,20.77068 6.73145,22.52105 0,0.815 3.19155,4.57492 7.09233,8.35538 l 7.09233,6.87357 -0.68319,9 c -0.37575,4.95 -1.24801,13.95 -1.93835,20 -0.8516,7.46325 -0.93167,11.52125 -0.24903,12.62121 1.06667,1.71874 -1.2276,8.92916 -3.77969,11.87879 -2.73071,3.15607 -2.72175,5.64722 0.0268,7.44814 1.43678,0.94142 2.34651,1.97748 2.02162,2.30237 -0.32489,0.32489 -1.66801,-0.42137 -2.98472,-1.65835 -2.27479,-2.13705 -2.54602,-2.17045 -5.4464,-0.67061 -3.35696,1.73595 -5.1517,2.00746 -5.1517,0.77934 0,-0.43951 1.575,-1.36864 3.5,-2.06473 2.32461,-0.84059 3.5,-1.90245 3.5,-3.16193 0,-1.04298 0.88351,-2.71944 1.96337,-3.72547 2.54201,-2.36825 5.42084,-9.26455 4.32493,-10.36046 -1.15607,-1.15607 -7.60043,0.73093 -10.45828,3.06232 -2.10709,1.71893 -2.16259,1.96598 -0.58002,2.58208 2.33672,0.90969 2.2271,4.1416 -0.18426,5.43212 -1.06384,0.56935 -3.99741,1.03518 -6.51905,1.03518 -4.3911,0 -4.55829,0.10562 -3.95733,2.5 0.87854,3.50042 -1.47858,3.26884 -5.08936,-0.5 -2.95918,-3.08872 -7.13953,-3.96047 -9.18466,-1.91534 -0.59657,0.59657 -2.14907,0.93407 -3.45,0.75 -1.82756,-0.25857 -2.37519,-0.9679 -2.40866,-3.11986 -0.0322,-2.07249 -0.91509,-3.31536 -3.45015,-4.85702 -1.87376,-1.13951 -5.40648,-3.59867 -7.85049,-5.4648 -5.2447,-4.00463 -7.75131,-4.19383 -17.4186,-1.31478 -7.74736,2.30726 -11.73744,1.95117 -11.73744,-1.04748 0,-1.06487 -2.01865,-3.61856 -4.5,-5.69271 -4.37598,-3.65787 -4.5,-3.92009 -4.5,-9.51459 0,-4.66442 0.36601,-5.94894 1.93426,-6.78824 2.95441,-1.58115 5.20826,-1.24992 7.75129,1.13913 1.9653,1.8463 2.31445,1.92173 2.31445,0.5 0,-2.36961 1.11995,-2.13737 9.27496,1.92326 l 7.22504,3.59758 -5.86696,-5.99477 c -4.23418,-4.32641 -8.06083,-7.02428 -13.75,-9.69405 l -7.88304,-3.69928 v -4.46352 c 0,-3.56138 0.70739,-5.38995 3.5,-9.04732 1.925,-2.5211 3.5,-5.60457 3.5,-6.85217 0,-1.24759 -1.8,-5.39041 -4,-9.20626 -2.2,-3.81585 -4.0008,-7.34288 -4.00179,-7.83784 -0.002,-1.06775 -9.16253,-7.01182 -10.24821,-6.64993 -0.4125,0.13749 -0.75,-0.16331 -0.75,-0.66845 0,-2.22693 -6.80589,-4.92066 -14,-5.54111 -6.89765,-0.59487 -7.7095,-0.46185 -10.10848,1.65636 -2.39623,2.11579 -2.78779,3.64574 -4.81231,18.80319 -1.21211,9.075 -2.45831,18.1875 -2.76933,20.25 l -0.5655,3.75 3.87781,-0.0153 c 2.1328,-0.008 4.4162,-0.35758 5.07424,-0.77591 0.65804,-0.41833 2.8671,-5.47394 4.90903,-11.23469 2.04193,-5.76075 4.14614,-11.03659 4.67602,-11.72409 0.52987,-0.6875 2.71129,-1.25 4.84758,-1.25 3.85772,0 5.18886,-0.93528 9.24893,-6.49843 0.80217,-1.09913 1.72342,-1.73349 2.04723,-1.40968 0.32381,0.32381 -0.72105,2.39688 -2.32193,4.60682 -2.52735,3.48891 -3.56209,4.10449 -7.85694,4.67422 l -4.94626,0.65615 -3.76957,11.01247 c -4.10522,11.99306 -5.72878,13.95844 -11.53079,13.95844 h -3.55525 l 0.52776,5.25 c 0.51779,5.15081 0.59388,5.25636 4.02776,5.58661 2.26978,0.21829 4.96337,-0.46071 7.66333,-1.93177 3.56998,-1.94509 4.54424,-3.23927 6.83609,-9.0808 1.47002,-3.74683 3.10347,-7.07861 3.62989,-7.40396 1.74653,-1.07941 13.76752,9.46585 13.84138,12.14218 0.0161,0.58424 -2.16901,7.78424 -4.85584,16 l -4.88516,14.93774 1.15465,8.5 1.15464,8.5 1.27766,-11.47012 c 0.72502,-6.50875 1.79532,-11.79006 2.47442,-12.20977 0.69848,-0.43168 2.44835,0.41979 4.20285,2.04508 1.65335,1.53159 6.26859,4.71511 10.25609,7.07449 3.9875,2.35938 7.25,4.70608 7.25,5.21489 0,0.50881 -0.9,2.68925 -2,4.84543 -2.55644,5.01104 -2.52732,5.44209 0.64901,9.60647 l 2.64901,3.47303 -2.79209,2.91431 c -2.60997,2.72422 -2.74862,3.29237 -2.12563,8.71025 0.83226,7.23784 2.40827,8.63473 8.76559,7.76933 3.27098,-0.44527 5.52729,-0.17664 7.62419,0.90771 2.42859,1.25588 3.55455,1.32264 6.10036,0.3617 2.63298,-0.99384 3.60466,-0.89337 6.20278,0.64138 3.02472,1.78675 3.12269,1.7804 5.3897,-0.34934 1.70586,-1.60258 3.28949,-2.08633 6.06284,-1.852 l 3.75387,0.31716 0.2243,9.5 c 0.13081,5.54063 -0.0943,8.45806 -0.54014,7 -0.60027,-1.96312 -0.82708,-1.31886 -1.05618,3 -0.16046,3.025 -0.30008,6.5125 -0.31026,7.75 -0.0102,1.2375 -0.37626,2.25 -0.81351,2.25 -0.76683,0 -0.0955,-24.20658 0.74185,-26.75 0.71627,-2.17558 -3.67075,-1.37674 -7.19296,1.30979 l -3.35606,2.55979 -2.9852,-2.12565 c -2.62331,-1.86796 -3.38571,-1.98083 -6.28895,-0.931 -2.75063,0.99464 -3.83595,0.91943 -6.48266,-0.44923 -2.22678,-1.15152 -4.37972,-1.45187 -7.18808,-1.00279 -3.73341,0.597 -9.9462,-0.93138 -10.09013,-2.48223 -1.1823,-12.73926 -1.07273,-14.36025 1.12915,-16.70405 l 2.21776,-2.36069 -4.23372,-5.60753 c -3.53816,-4.68625 -4.10498,-6.04692 -3.45005,-8.28197 0.43102,-1.47094 0.80877,-3.00462 0.83944,-3.40817 0.069,-0.90847 -11.48459,-12.76627 -12.43881,-12.76627 -0.38036,0 -1.23786,5.2875 -1.90555,11.75 -1.97797,19.14455 -3.01161,19.76937 -5.54024,3.34899 l -1.68366,-10.93334 4.6421,-14.66941 c 2.55315,-8.06817 4.46225,-14.84926 4.24243,-15.06907 -0.21981,-0.21982 -4.77698,6.54753 -10.12702,15.03854 l -9.72737,15.4382 4.40804,7.79805 c 7.16698,12.67878 8.28563,15.03919 6.37711,13.45608 -1.93497,-1.60505 -11.69126,-19.44867 -11.69126,-21.38255 0,-0.7449 4.29487,-8.23204 9.54416,-16.6381 9.97879,-15.97974 10.74575,-18.52455 5.94603,-19.72921 -3.38116,-0.84862 -4.18957,-0.0377 -6.14441,6.16383 -1.57201,4.98699 -2.25035,5.79875 -7.22322,8.64394 l -5.48827,3.14007 -5.56715,-2.02697 -5.56714,-2.02697 0.24828,-4.709 c 0.35006,-6.63932 -1.2771,-4.87149 -2.86385,3.11143 -0.96533,4.85653 -2.50643,8.43183 -5.55128,12.87871 l -4.21498,6.15581 2.69091,2.4499 c 7.69846,7.00893 26.30709,20.80701 30.59546,22.68617 2.69749,1.18204 4.65863,2.39506 4.35808,2.69561 -0.30055,0.30055 -2.23918,-0.16082 -4.30807,-1.02526 -4.37985,-1.83001 -5.09032,-1.53634 -3.28329,1.35717 1.57034,2.51452 6.82986,3.2648 11.69056,1.66767 l 2.36183,-0.77605 -0.72629,7.35288 c -0.57131,5.78392 -2.50581,11.88214 -9.066,28.5791 -8.09296,20.59816 -8.58518,21.53598 -16.63554,31.69517 -4.5627,5.75793 -8.97082,10.4784 -9.79582,10.48993 -0.825,0.0115 -4.425,-4.35129 -8,-9.69517 z m 16.31156,-2.29181 c 7.0579,-8.95886 8.08787,-10.93391 15.98988,-30.66173 4.83361,-12.06738 8.73251,-23.37877 9.1158,-26.4465 l 0.66974,-5.36043 -5.79349,0.15416 c -5.22358,0.13901 -6.40831,-0.24857 -12.04349,-3.93993 -3.4375,-2.25175 -6.25,-4.77378 -6.25,-5.60451 0,-1.01907 -0.52523,-0.76054 -1.61459,0.79474 -1.11503,1.59192 -1.43424,3.43986 -1.0317,5.97251 0.32059,2.01704 0.22217,4.24753 -0.21871,4.95665 -0.51932,0.83526 -3.23735,-4.20123 -7.7183,-14.30194 -3.80419,-8.57518 -7.7042,-16.44905 -8.6667,-17.49748 -0.9625,-1.04844 -1.74994,-2.26257 -1.74988,-2.69807 7e-5,-0.43549 -1.22506,-3.60431 -2.72252,-7.04181 -2.16518,-4.97031 -3.17688,-6.25 -4.94111,-6.25 -1.22015,0 -2.49732,-0.45122 -2.83816,-1.0027 -1.10061,-1.78083 -4.49833,0.88504 -4.49833,3.52941 0,1.37334 -0.8818,3.00704 -2,3.70536 -2.46175,1.53739 -2.53415,2.46216 -0.25,3.19337 0.9625,0.30812 2.99086,2.52844 4.50747,4.93405 3.5246,5.59064 9.74253,32.55287 9.74253,42.24561 0,6.05302 0.4347,7.4895 4.55237,15.04347 3.82146,7.01056 4.26299,8.34805 2.75,8.33041 -0.9913,-0.0116 -4.38987,-2.48603 -7.55237,-5.49881 -5.515,-5.25391 -5.75471,-5.6924 -5.86515,-10.72898 -0.0633,-2.88815 -0.0279,-6.15119 0.0788,-7.25119 0.22429,-2.31297 -7.68192,5.15099 -25.11324,23.70846 l -10.99794,11.70847 -0.50299,8.04153 c -0.32751,5.23611 -0.13918,8.04154 0.53984,8.04154 1.9035,0 8.59166,-3.47467 9.80985,-5.09647 2.49281,-3.3187 23.54344,-28.46891 25.02915,-29.90353 3.72591,-3.59778 -0.68146,2.16963 -12.35123,16.16259 l -12.22822,14.66259 7.06311,-2.91259 c 5.8969,-2.43169 8.46173,-2.91259 15.53397,-2.91259 h 8.47087 l -0.60841,-2.5 c -2.02177,-8.30762 -1.38354,-9.0969 0.80862,-1 1.08629,4.01225 13.52743,23.64539 14.71684,23.22437 0.34863,-0.1234 4.02859,-4.53342 8.17769,-9.80003 z m -64.31156,-7.52764 c 0,-1.10641 34.26461,-41.46542 34.77264,-40.9574 0.47494,0.47494 -33.49171,41.5607 -34.3593,41.5607 -0.22734,0 -0.41334,-0.27149 -0.41334,-0.6033 z m 35.20668,-47.87017 c 0.64936,-1.09727 -11.01732,-38.78635 -13.2373,-42.76296 -1.34306,-2.4058 -1.23405,-2.76357 0.84206,-2.76357 2.47431,0 6.18856,-3.63733 6.18856,-6.06039 0,-2.55908 4.52088,-4.81873 6.22713,-3.11248 0.64508,0.64508 2.12844,1.17287 3.29636,1.17287 1.6607,0 2.67262,1.33864 4.64312,6.14222 l 2.51964,6.14222 4.05209,-5.65868 c 4.47056,-6.24307 8.03049,-18.32067 6.33429,-21.49004 -0.76654,-1.4323 2.88054,-33.58137 5.42542,-47.82514 0.99969,-5.59524 5.28323,-7.31058 18.25601,-7.31058 h 11.01799 l 6.62007,-6.25 6.62007,-6.25 0.62304,-8.07445 c 0.67121,-8.69871 -0.36529,-12.42555 -3.45578,-12.42555 -2.56789,0 -8.1832,-11.8752 -8.1658,-17.26893 0.0245,-7.58544 0.761,-8.87689 4.86673,-8.53366 3.56951,0.2984 3.64086,0.39173 5.15401,6.74164 l 1.53438,6.43905 2.84166,-9.43905 c 2.55317,-8.48075 3.41264,-10.03398 8.46562,-15.29901 3.09317,-3.22298 7.13307,-6.511 8.97754,-7.30671 3.80823,-1.64287 8.60524,-1.00814 11.54766,1.52796 1.04569,0.90129 0.25819,-0.53326 -1.75,-3.18789 -2.00819,-2.65462 -3.65125,-5.33212 -3.65125,-5.95 0,-1.38355 0.53159,-0.78798 5.5616,6.23097 2.14983,2.99991 3.35295,5.11085 2.67359,4.69099 -0.72117,-0.44571 -1.23519,-0.25819 -1.23519,0.45061 0,0.88147 -0.49442,0.82915 -1.80501,-0.19098 -0.99275,-0.77275 -0.56507,-0.26585 0.95041,1.12644 1.51548,1.39228 3.75727,5.14942 4.98176,8.3492 1.22448,3.19979 2.8218,6.04629 3.54959,6.32557 0.72779,0.27928 1.32325,1.26413 1.32325,2.18856 0,0.92443 1.33171,3.23879 2.95936,5.14301 2.30278,2.69408 3.01084,4.57156 3.19142,8.46223 0.15298,3.29626 0.44235,1.76289 0.84922,-4.5 l 0.61717,-9.5 0.16318,7.5 c 0.13524,6.21524 0.71133,8.61346 3.36303,14 1.75991,3.575 3.57261,7.28139 4.02823,8.23643 0.45561,0.95504 0.83646,4.78004 0.84633,8.5 l 0.0179,6.76357 6.05627,-10.79677 6.05626,-10.79677 -3.16354,-14.70323 c -3.6874,-17.13797 -4.16374,-18.65489 -3.51804,-11.20323 0.37371,4.31288 0.25962,4.97603 -0.52858,3.07244 -0.55284,-1.33515 -1.1593,-6.28515 -1.3477,-11 -0.1884,-4.71484 -0.858,-10.45637 -1.48799,-12.75895 -1.02564,-3.74861 -1.74465,-4.46667 -6.874,-6.86486 -4.01337,-1.87643 -7.3753,-2.68182 -11.22855,-2.68991 l -5.5,-0.0116 4.82763,-0.62357 4.82762,-0.62358 -3.16695,-3 c -1.94138,-1.83904 -3.08653,-2.41952 -2.95914,-1.5 0.41945,3.02767 -0.0738,4 -2.02916,4 -1.1,0 -2,0.47656 -2,1.05902 0,0.58246 -0.45734,0.77636 -1.01631,0.4309 -1.48582,-0.91828 -0.17589,-2.48989 2.07536,-2.48989 1.47954,0 1.94098,-0.69635 1.94098,-2.9291 0,-3.12522 -0.25492,-3.22617 -14.26096,-5.64743 -4.44953,-0.7692 -7.4914,0.96506 -5.62893,3.20921 0.85085,1.02521 0.83917,1.36732 -0.0467,1.36732 -0.64981,0 -0.90419,0.44864 -0.5653,0.99698 0.40177,0.65006 -0.31818,0.64174 -2.06904,-0.0239 -2.09205,-0.79539 -3.87186,-0.57693 -8.05715,0.98899 -2.95457,1.10544 -5.37194,1.77522 -5.37194,1.4884 0,-1.23216 9.72219,-4.55298 12,-4.09885 2.1256,0.42378 2.5,0.12908 2.5,-1.96781 0,-2.37742 -0.2138,-2.45574 -5.93742,-2.175 l -5.93741,0.29123 -9.75806,15.34804 c -6.62821,10.42521 -9.88201,16.51939 -10.14449,19 l -0.38641,3.65196 -0.16811,-4.10857 c -0.14678,-3.58752 0.91701,-5.79685 8.38818,-17.42091 11.17463,-17.38611 10.96433,-16.97056 8.58852,-16.97056 -1.32242,0 -5.46665,4.77691 -13.23021,15.25 -6.21753,8.3875 -11.72211,15.81269 -12.23239,16.50043 -0.51028,0.68774 -10.49148,26.78774 -22.18044,58 -17.19081,45.9035 -21.67182,56.94069 -23.44588,57.74957 -1.76467,0.8046 -2.08042,1.57025 -1.61589,3.9183 0.31754,1.60506 0.85375,5.89229 1.19158,9.52717 l 0.61423,6.60886 -4.47009,0.19455 -4.47009,0.19455 -1.11419,-5.22172 c -0.61281,-2.87194 -1.40665,-6.90921 -1.76409,-8.97171 -0.57502,-3.31791 -0.98275,-3.75 -3.53861,-3.75 -3.37577,0 -3.50269,0.76284 -1.47333,8.85566 0.77845,3.10438 1.71801,7.55684 2.08789,9.89434 0.64675,4.08714 0.57241,4.25 -1.94012,4.25 -1.9123,0 -2.91252,-0.73717 -3.73133,-2.75 l -1.11867,-2.75 -1.01932,3.31306 c -0.79237,2.57541 -0.62198,4.57924 0.76531,9 0.98155,3.12782 2.26372,5.99038 2.84928,6.36124 1.11639,0.70708 0.66302,1.35556 -9.45892,13.52962 l -5.6505,6.79608 -1.0995,19.03224 c -0.60472,10.46772 -1.0995,22.83571 -1.0995,27.48442 v 8.45218 l 17.25,-17.87409 c 9.4875,-9.83075 17.56801,-18.41144 17.95668,-19.06822 z m 34.91097,-125.52653 c -0.22098,-3.02086 5.92717,-33.34908 7.0299,-34.67778 1.8115,-2.18273 2.05191,-0.8568 0.41563,2.29234 -0.8246,1.58699 -2.81249,9.86044 -4.41754,18.38544 -1.60504,8.525 -2.96764,14.825 -3.02799,14 z m 11.56898,-25.05095 c -0.96856,-5.6144 -1.56597,-10.40304 -1.32758,-10.64143 0.6074,-0.6074 3.93807,18.30103 3.47067,19.70322 -0.21014,0.63042 -1.17453,-3.44739 -2.14309,-9.06179 z m 4.61303,3.05095 c 0,-3.025 0.18747,-4.2625 0.41659,-2.75 0.22913,1.5125 0.22913,3.9875 0,5.5 -0.22912,1.5125 -0.41659,0.275 -0.41659,-2.75 z m 1,-11 c 0,-3.025 0.18747,-4.2625 0.41659,-2.75 0.22913,1.5125 0.22913,3.9875 0,5.5 -0.22912,1.5125 -0.41659,0.275 -0.41659,-2.75 z m 0.9559,-10 c -0.0212,-2.475 0.29651,-7.2 0.70595,-10.5 0.67619,-5.4499 0.74798,-5.58742 0.78293,-1.5 0.0212,2.475 -0.29651,7.2 -0.70595,10.5 -0.67619,5.4499 -0.74798,5.58742 -0.78293,1.5 z m 70.03774,-7.39097 c -5.46684,-11.83767 -7.43254,-16.60903 -6.84259,-16.60903 0.84165,0 11.62451,23.3833 11.33143,24.57288 -0.15518,0.62985 -2.17516,-2.95389 -4.48884,-7.96385 z m 5.78565,6.80764 c 0.048,-1.16495 0.28494,-1.4019 0.60416,-0.60417 0.28887,0.72187 0.25335,1.58437 -0.0789,1.91667 -0.33229,0.33229 -0.56864,-0.25834 -0.52522,-1.3125 z m -0.92693,-5.41667 c -0.23888,-4.53918 -8.43072,-22.63768 -11.87235,-26.22998 -4.40419,-4.59698 -3.67395,-6.34663 1.04939,-2.51432 4.23531,3.43634 12.74965,17.97726 14.21068,24.26921 0.37996,1.6363 -1.79875,-2.0378 -4.84158,-8.16467 -3.04282,-6.12687 -6.06638,-11.46978 -6.71901,-11.87313 -0.65318,-0.40369 -0.49736,0.33345 0.34662,1.63977 4.02352,6.22759 8.77924,19.06025 8.40011,22.66653 l -0.38967,3.70659 z m -9.15202,-25.32569 c 0,-0.17912 -1.2375,-1.41662 -2.75,-2.75 l -2.75,-2.42431 2.42431,2.75 c 2.26589,2.57029 3.07569,3.20859 3.07569,2.42431 z m -2.85362,16.82569 c -0.0955,-1.65 -0.40524,-4.125 -0.68824,-5.5 l -0.51456,-2.5 1.07553,2.46503 c 0.59154,1.35577 0.90125,3.83077 0.68825,5.5 l -0.38729,3.03497 z m -53.14638,-10.42371 c 0,-9.45524 4.70315,-17.81118 11,-19.54339 2.29111,-0.63026 2.24933,-0.5242 -0.5,1.26928 -5.58029,3.64022 -7.1609,5.88769 -8.46607,12.03794 -0.70735,3.3332 -1.01848,6.75775 -0.6914,7.61012 0.32709,0.85237 0.15882,1.54976 -0.37391,1.54976 -0.53274,0 -0.96862,-1.31567 -0.96862,-2.92371 z m 3.09086,1.61653 c -0.13113,-2.60812 2.02055,-10.96679 3.2152,-12.49015 1.27111,-1.62086 2.70887,0.2174 2.57895,3.29733 -0.0689,1.63223 -0.22461,1.54029 -0.84704,-0.5 -0.88547,-2.90251 -1.22896,-2.29818 -3.4104,6 -0.79521,3.025 -1.48673,4.68677 -1.53671,3.69282 z m 8.51775,-0.10686 c 0.56511,-1.47914 0.40863,-1.72674 -0.68867,-1.08968 -0.84201,0.48885 -1.08077,0.45386 -0.58661,-0.086 0.45834,-0.50068 1.17095,-0.91033 1.58359,-0.91033 0.41263,0 3.18763,-1.86117 6.16666,-4.13594 6.08856,-4.64919 13.91642,-8.87108 13.91642,-7.5057 0,0.49445 -1.4625,1.4839 -3.25,2.19877 -3.56862,1.4272 -9.42579,5.59735 -14.56133,10.36728 -2.39508,2.22457 -3.10899,2.54597 -2.58006,1.16155 z m -0.90628,-6.91929 c -0.28141,-0.73334 0.0775,-1.33334 0.79767,-1.33334 0.72013,0 1.07908,0.6 0.79767,1.33334 -0.28141,0.73333 -0.64036,1.33333 -0.79767,1.33333 -0.15731,0 -0.51626,-0.6 -0.79767,-1.33333 z m 2.29767,-15.66667 c -1.33333,-0.86167 -1.33333,-0.96937 0,-0.96937 0.825,0 2.175,0.43621 3,0.96937 1.33333,0.86167 1.33333,0.96937 0,0.96937 -0.825,0 -2.175,-0.43621 -3,-0.96937 z m -69.09418,231.38652 c -0.73649,-0.88741 -1.63146,-3.69991 -1.98883,-6.25 l -0.64976,-4.63652 -0.13362,5.05 c -0.12503,4.72586 1.04098,7.45 3.18883,7.45 0.50735,0 0.31987,-0.72607 -0.41662,-1.61348 z m -5.91215,-34.07753 c -2.18466,-10.04216 -4.07017,-16.17644 -5.85767,-19.0572 -2.51254,-4.04924 -4.96962,-5.86655 -3.79571,-2.80738 0.30485,0.79442 3.13932,9.5581 6.29881,19.47485 3.15949,9.91674 5.93167,17.8433 6.16039,17.61458 0.22872,-0.22872 -1.03389,-7.0799 -2.80582,-15.22485 z m 26.3708,7.33347 c -0.43792,-3.19502 -0.14475,-5.04816 1.09891,-6.94623 1.32319,-2.01944 1.44824,-2.98534 0.56865,-4.39246 -0.96731,-1.54746 -1.035,-1.44853 -0.47635,0.69623 0.63348,2.43205 0.60846,2.44564 -0.92045,0.5 -0.86439,-1.1 -1.6051,-2.9 -1.64602,-4 -0.0621,-1.66965 -8.56201,-9.5 -10.31231,-9.5 -0.27957,0 2.15375,5.82264 5.40739,12.93919 3.25364,7.11656 5.91571,13.41656 5.91571,14 0,0.58345 0.21639,1.06081 0.48087,1.06081 0.26448,0 0.2121,-1.96089 -0.1164,-4.35754 z m 12.18103,-3.55447 c -1.43033,-2.76596 -7.58087,-8.38595 -8.34326,-7.62356 -0.88444,0.88444 2.67199,5.75994 5.82555,7.98624 1.90972,1.34819 3.59627,2.47332 3.74789,2.50029 0.15162,0.027 -0.40196,-1.26136 -1.23018,-2.86297 z m 84.4545,-6.02762 c 0,-0.5168 1.6875,-1.11616 3.75,-1.3319 3.43565,-0.35938 3.35182,-0.40636 -1,-0.56037 -3.63027,-0.12847 -4.75,0.1855 -4.75,1.3319 0,0.825 0.45,1.5 1,1.5 0.55,0 1,-0.42284 1,-0.93963 z m 20.49328,-1.06037 c 3.17843,0 4.40673,-0.35277 3.9276,-1.12802 -0.65039,-1.05234 -12.06163,-0.56456 -13.19001,0.56382 -1.21536,1.21535 1.03613,2.49167 2.76408,1.5669 1.03046,-0.55148 3.95471,-1.0027 6.49833,-1.0027 z m -65.5352,-6.00945 c 0.0231,-0.2802 -0.77289,-1.01832 -1.76878,-1.64026 -1.60802,-1.00422 -1.76516,-0.82053 -1.40388,1.64103 0.22375,1.52451 -0.0668,3.06454 -0.64563,3.42228 -0.57884,0.35775 -0.77646,1.36965 -0.43915,2.24867 0.47122,1.22798 1.03053,0.81517 2.41441,-1.78203 0.99062,-1.85913 1.81998,-3.60949 1.84303,-3.88969 z m 53.43493,1.42766 c 1.08461,-2.82644 0.5724,-15.75548 -0.88813,-22.41821 -1.28902,-5.88032 -1.26184,-6.91156 0.28513,-10.81699 1.63894,-4.1376 1.86581,-4.30271 5.45999,-3.97357 3.05489,0.27976 3.75,0.0141 3.75,-1.43301 0,-2.85047 2.78976,-2.04414 3.3684,0.97357 0.29001,1.5125 0.8229,7.78112 1.18419,13.93026 0.58382,9.93655 0.41132,11.91819 -1.55064,17.81388 -1.21414,3.64849 -1.95779,6.88336 -1.65255,7.18859 0.30523,0.30524 2.47521,-1.08868 4.82216,-3.09759 2.34696,-2.0089 6.30598,-4.24648 8.79782,-4.97238 l 4.53062,-1.31983 1.89925,-18.70654 1.89925,-18.70653 -4.39925,-4.53523 c -2.41959,-2.49438 -5.14635,-4.82985 -6.05947,-5.18993 -0.91312,-0.36009 -6.33929,-5.06406 -12.05816,-10.45328 -6.42858,-6.05802 -12.38526,-10.71932 -15.60382,-12.2105 -4.84346,-2.24401 -5.13314,-2.27599 -4.16094,-0.45942 1.13313,2.11728 7.98314,21.46407 7.98314,22.54715 0,0.36395 -2.67081,0.46854 -5.93514,0.23242 -4.42335,-0.31995 -6.39742,-0.96256 -7.75,-2.52282 -0.99817,-1.15143 -5.49063,-3.42536 -9.98324,-5.05318 -6.25846,-2.26764 -12.26198,-5.81771 -25.67584,-15.18292 -9.6291,-6.72278 -17.73905,-12.82676 -18.02211,-13.5644 -0.28515,-0.74309 0.9081,-2.44321 2.67584,-3.81251 7.84092,-6.07359 7.70421,-5.76635 7.54852,-16.9642 l -0.14198,-10.21104 -0.70628,6.97572 -0.70629,6.97573 -7.3802,6.75078 -7.3802,6.75078 -10.16788,-0.62213 c -9.36909,-0.57325 -10.45099,-0.44716 -13.77154,1.60506 -1.98201,1.22495 -3.60366,2.59688 -3.60366,3.04873 0,0.45186 -1.37694,10.85888 -3.05988,23.12672 -2.32425,16.94277 -2.79763,22.79602 -1.96907,24.34689 0.9209,1.72369 1.00443,1.74679 0.53623,0.14831 -0.30502,-1.04138 0.84646,-11.84138 2.55885,-24 3.80957,-27.04956 3.5193,-26.59379 16.9415,-26.60162 l 8.50764,-0.005 9.49236,6.35464 c 9.10133,6.09286 9.66745,6.68997 13.74237,14.49486 5.46552,10.46837 5.58585,14.11339 0.67806,20.54092 -5.12724,6.71495 -4.3547,9.3097 3.85576,12.95036 4.46653,1.98054 8.96367,5.34626 15.97751,11.95779 13.85903,13.06409 13.28426,14.76427 -2.26133,6.68899 -7.27172,-3.77736 -9.57584,-4.5892 -9.82332,-3.46121 -0.4582,2.08837 -1.83169,1.83857 -5.57041,-1.01309 -2.82429,-2.1542 -3.50476,-2.30797 -5.08845,-1.14995 -3.18144,2.32633 -1.40961,8.37186 3.8501,13.13669 2.4285,2.2 4.66462,4.76025 4.96914,5.68944 0.50682,1.54642 1.21434,1.48223 8.35831,-0.75832 9.71792,-3.04782 14.14138,-2.55744 20.01895,2.2193 6.91257,5.61788 12.40791,8.32439 16.92869,8.33753 2.86344,0.008 4.33048,-0.47649 4.75,-1.56974 z m 6.35144,0.33179 c 0.54413,-0.6875 1.96171,-4.21476 3.15018,-7.83834 1.68189,-5.12806 2.01483,-7.83067 1.50209,-12.19329 -0.36231,-3.08272 -1.21797,-5.81954 -1.90147,-6.08182 -0.68349,-0.26228 -1.56584,-2.19927 -1.96076,-4.30442 -0.63632,-3.39185 -1.90216,-5.26993 -3.5836,-5.31682 -0.30201,-0.008 -1.11169,1.54047 -1.79928,3.44198 -1.03485,2.86182 -0.97281,4.79944 0.36024,11.25 1.13622,5.49811 1.41059,9.92751 0.9318,15.04271 -0.56815,6.0697 -0.43523,7.25 0.81642,7.25 0.82227,0 1.94024,-0.5625 2.48438,-1.25 z m -170.21336,-17.6997 c -0.65065,-1.05277 -5.53109,-1.992 -5.53109,-1.06444 0,0.96989 4.31682,2.87242 5.26631,2.32099 0.42147,-0.24478 0.54062,-0.81022 0.26478,-1.25655 z m 6.59721,-6.5503 c 0.66325,2.48998 0.73448,2.26282 0.41899,-1.3362 -0.60318,-6.88108 5.09969,-11.37088 7.51162,-5.9138 1.04503,2.36442 1.06315,2.58036 -0.71331,-8.5 -0.58922,-3.67516 -0.68917,-3.75 -5.00859,-3.75 -2.42406,0 -5.52361,0.73138 -6.88789,1.6253 -1.77747,1.16464 -3.60979,1.44472 -6.46482,0.98818 -3.02988,-0.4845 -3.9843,-0.30631 -3.9843,0.74386 0,1.71783 5.37421,2.67041 10.89108,1.93044 3.1801,-0.42654 4.10892,-0.22255 4.10892,0.90241 0,1.94516 -3.04859,11.00928 -4.19717,12.47909 -0.60156,0.76979 -0.2969,1.51795 0.89172,2.18982 1.52056,0.85952 1.87087,0.59612 2.22005,-1.66927 l 0.41461,-2.68983 z m -3.20004,-9.5 0.77145,-2.5 -7.84985,-0.23506 c -4.64629,-0.13913 -7.84986,0.16695 -7.84986,0.75 0,0.54572 2.89905,0.98506 6.5,0.98506 h 6.5 l 0.079,3.25 c 0.0769,3.16415 0.2398,2.96591 1.84931,-2.25 z m 70.32174,-0.69215 c 2.0625,-1.28312 3.75,-2.76738 3.75,-3.29837 0,-0.53099 -2.1131,0.37466 -4.69578,2.01254 -2.58268,1.63789 -5.62018,3.00961 -6.75,3.04827 -2.02947,0.0694 -2.03013,0.08 -0.0542,0.87486 2.14391,0.86248 2.10087,0.87713 7.75,-2.6373 z m -43.26531,-2.17443 c -0.0235,-2.50087 -1.23343,-3.78883 -4.04929,-4.31028 -2.5045,-0.46378 -2.54172,-0.38923 -1.58865,3.18146 0.82896,3.10571 1.32815,3.58904 3.3146,3.20931 1.32404,-0.25311 2.33201,-1.15572 2.32334,-2.08049 z m -42.53049,-3.87466 c 0.44126,-1.1499 -0.0695,-2.33854 -1.5038,-3.5 -3.27337,-2.65062 -5.0865,-2.26416 -4.65055,0.99124 0.20255,1.5125 0.85545,2.75 1.45088,2.75 0.59543,0 1.4201,0.3375 1.8326,0.75 1.20395,1.20395 2.15443,0.87577 2.87087,-0.99124 z m 97.5458,-9.25876 c -1.95653,-1.26441 -4,-1.26441 -4,0 0,0.55 1.2375,0.99311 2.75,0.98469 2.14294,-0.0119 2.41887,-0.22931 1.25,-0.98469 z m 97.27938,-12.03966 c -0.29336,-1.12182 -0.75683,-1.81623 -1.02992,-1.54313 -0.541,0.54099 0.41459,3.58279 1.12554,3.58279 0.24077,0 0.19774,-0.91785 -0.0956,-2.03966 z m -45.33383,-7.71034 c -2.37004,-2.6125 -5.57735,-5.39414 -7.12736,-6.18143 -1.55,-0.78728 -2.81819,-1.80736 -2.81819,-2.26684 0,-0.91331 8.9845,3.38665 13.02209,6.23233 l 2.5221,1.77756 -1.1351,-8.65581 c -1.33249,-10.16106 -2.46789,-13.35067 -5.7764,-16.22739 -1.61466,-1.40392 -2.6685,-3.68317 -3.13126,-6.77227 -0.38363,-2.56088 -1.2159,-4.9873 -1.84947,-5.39204 -0.63358,-0.40473 -3.914,-0.46026 -7.28982,-0.12339 l -6.13786,0.61249 -5.36214,-6.55654 -5.36214,-6.55653 -0.28576,9.39228 -0.28576,9.39228 -4.46424,3.65811 c -2.45533,2.01196 -4.46424,4.02133 -4.46424,4.46527 0,1.54837 32.42358,23.46922 37.93992,25.65032 3.05804,1.20913 5.72989,2.22163 5.93744,2.25 0.20755,0.0284 -1.56177,-2.0859 -3.93181,-4.6984 z m 10.5359,1.05136 c -2.11186,-5.05439 -2.48145,-5.21098 -2.48145,-1.05136 0,3.19829 0.85493,4.42198 3.26342,4.67105 0.41988,0.0434 0.068,-1.58544 -0.78197,-3.61969 z m 25.93742,-3.30131 c -6.11248,-7.78022 -7.16879,-8.65013 -8.67483,-7.14409 -0.89494,0.89494 0.35344,2.57217 5.29238,7.11044 3.55497,3.26658 6.83094,5.96047 7.27993,5.98642 0.44899,0.026 -1.30487,-2.6528 -3.89748,-5.95277 z m 3.89658,-3.25005 c -1.38739,-4.5375 -2.6619,-8.39846 -2.83223,-8.5799 -0.83976,-0.89457 -5.37988,3.17763 -4.72248,4.23576 1.26319,2.03323 9.46295,12.59414 9.7784,12.59414 0.16437,0 -0.83629,-3.7125 -2.22369,-8.25 z m -13.31545,-6.30103 c 0,-0.59035 -6.41448,-3.45248 -7.71788,-3.44371 -0.43017,0.003 0.56788,0.87001 2.21788,1.92691 2.95546,1.8931 5.5,2.59484 5.5,1.5168 z m -26,-34.89173 6.5,-6.89031 -6.25,5.3165 c -3.4375,2.92408 -6.25,5.43722 -6.25,5.58475 0,0.14753 -0.2967,1.09255 -0.65933,2.10003 -0.36263,1.00749 -0.47513,1.59499 -0.25,1.30557 0.22513,-0.28943 3.33433,-3.62687 6.90933,-7.41654 z m -3.90182,-0.80724 c 8.03979,-8.29263 10.35705,-11.89477 8.71091,-13.54091 -0.78456,-0.78456 -0.35149,-1.96421 1.55125,-4.22548 3.64937,-4.33704 3.52591,-8.90463 -0.36034,-13.33083 -1.65,-1.87924 -3,-4.09676 -3,-4.92781 0,-0.83104 -0.64378,-1.75803 -1.43061,-2.05997 -0.78684,-0.30194 -2.2339,-3.09727 -3.21568,-6.21185 -1.34368,-4.26266 -2.87922,-6.62599 -6.21018,-9.55801 -2.43381,-2.14233 -4.72193,-3.89514 -5.0847,-3.89514 -1.5397,0 -12.0604,10.30571 -12.07677,11.82999 -0.0288,2.6842 -12.02592,23.32151 -13.31183,22.89892 -0.64363,-0.21151 -1.86943,-3.72304 -2.724,-7.8034 -1.12856,-5.38861 -2.01795,-7.50822 -3.25,-7.74549 -1.4305,-0.27549 -1.69623,0.54299 -1.69623,5.2245 0,6.76615 4.29837,16.59548 7.25721,16.59548 1.16934,0 2.46741,1.40009 3.55942,3.83917 0.94537,2.11154 2.45211,4.57242 3.34831,5.46863 0.89621,0.8962 3.78751,4.56858 6.42513,8.16083 4.75956,6.48219 4.83212,6.53137 9.63741,6.53137 4.69744,0 5.05125,-0.21609 11.8707,-7.25 z m 13.30822,-12.4293 c 2.08918,-6.13143 2.01063,-7.00809 -0.43003,-4.79932 -1.24551,1.12718 -1.66653,2.18846 -1.09493,2.76006 0.5716,0.5716 0.36869,2.269 -0.5277,4.41438 -0.80103,1.91712 -1.02543,3.21931 -0.49868,2.89376 0.52675,-0.32555 1.67485,-2.69655 2.55134,-5.26888 z m -39.50186,-27.80555 c 1.7025,-3.01667 3.09546,-6.2631 3.09546,-7.21429 0,-1.6193 -0.10693,-1.6225 -1.6792,-0.0502 -1.41876,1.41872 -5.69176,12.74934 -4.80804,12.74934 0.16298,0 1.68928,-2.46818 3.39178,-5.48485 z m 55.75774,-9.76515 c -0.27741,-0.6875 -0.50439,-0.125 -0.50439,1.25 0,1.375 0.22698,1.9375 0.50439,1.25 0.27741,-0.6875 0.27741,-1.8125 0,-2.5 z M 350.34984,328.6096 c 0.17575,-1.19442 0.99455,-2.37567 1.81955,-2.625 1.21056,-0.36585 1.2588,-0.19766 0.25,0.87167 -0.6875,0.72875 -1.25,1.64287 -1.25,2.03138 0,1.10562 4.28632,-0.21505 6.48277,-1.99741 1.89815,-1.54031 1.91949,-1.52362 0.5,0.39103 -2.09731,2.82891 -3.1602,3.46724 -5.80232,3.48469 -1.81556,0.012 -2.25012,-0.45655 -2,-2.15636 z m 7.81955,1.23069 c 0,-0.51754 0.51953,-1.26207 1.15451,-1.65451 0.7153,-0.44208 0.88306,-0.27432 0.44098,0.44098 -1.03875,1.68073 1.92749,1.43421 3.34876,-0.27832 1.21493,-1.4639 5.3158,-1.79696 4.42745,-0.35958 -0.76545,1.23852 1.94562,0.86784 3.76163,-0.51433 0.89833,-0.68372 1.85863,-2.13191 2.134,-3.21819 0.38251,-1.50897 0.52804,-1.33439 0.61667,0.73975 0.0745,1.74349 -0.57605,3.08519 -1.81826,3.75 -2.65537,1.42111 -6.05927,1.30116 -6.09615,-0.21482 -0.0169,-0.69372 -0.48401,-0.47121 -1.04969,0.5 -1.06587,1.82999 -6.9199,2.51439 -6.9199,0.80902 z m -24.03579,-6.22337 c -1.14512,-2.23286 -1.1183,-2.25968 0.60945,-0.60946 0.99401,0.94941 1.53304,2.00045 1.19784,2.33565 -0.3352,0.3352 -1.14849,-0.44159 -1.80729,-1.72619 z m 3.03579,1.73756 c 0,-0.29966 1.82556,-1.75293 4.0568,-3.2295 l 4.0568,-2.68466 2.6932,2.89227 2.6932,2.89227 -2.68568,-2.33569 -2.68569,-2.33568 -2.81431,1.94992 c -3.99311,2.76667 -5.31432,3.47548 -5.31432,2.85107 z m 54.1093,-1.27589 c 1.46827,-0.22677 3.18167,-1.47248 3.91818,-2.84866 1.71499,-3.20449 2.39387,-2.46753 0.84945,0.92211 -0.94636,2.07702 -1.84684,2.59776 -4.28745,2.4794 -2.81882,-0.13671 -2.86088,-0.18514 -0.48018,-0.55285 z m -31.1093,-0.67488 c 0,-0.20765 0.7875,-0.99515 1.75,-1.75 1.58606,-1.24387 1.62143,-1.2085 0.37756,0.37756 -1.30637,1.66575 -2.12756,2.19548 -2.12756,1.37244 z m 5.33714,-0.87244 c -1.17839,-1.88628 -1.29161,-3.8399 -0.18282,-3.15463 0.53831,0.3327 0.72771,0.85594 0.42089,1.16276 -0.30682,0.30682 -0.0567,1.16176 0.55591,1.89986 0.61257,0.73811 0.86023,1.34201 0.55034,1.34201 -0.30988,0 -0.91483,-0.5625 -1.34432,-1.25 z m -5.11095,-2.32872 c 0.94941,-0.99123 1.94144,-1.58698 2.20452,-1.3239 0.26308,0.26308 -0.5137,1.07408 -1.72619,1.80223 -2.10631,1.26492 -2.12762,1.24361 -0.47833,-0.47833 z m 13.80561,1.02414 c -0.0175,-0.58002 -1.57106,-2.73507 -3.45238,-4.78899 -3.66088,-3.99675 -5.52845,-4.16278 -11.72836,-1.04267 -2.36313,1.18924 -2.94799,1.09783 -5.42073,-0.84722 l -2.77179,-2.18029 0.57747,2.20825 c 0.37557,1.43619 0.20104,1.97561 -0.49921,1.54283 -0.65865,-0.40707 -0.85202,-0.08 -0.49803,0.8425 0.44236,1.15278 0.008,1.39881 -1.84484,1.04464 -1.33292,-0.2548 -2.66839,-0.85954 -2.96772,-1.34387 -0.94041,-1.52162 -3.40269,-0.96868 -7.2114,1.6194 -2.02349,1.375 -4.13111,2.5 -4.6836,2.5 -0.55248,0 1.42617,-1.63692 4.397,-3.63759 4.46038,-3.0038 5.71889,-3.43938 7.22308,-2.5 2.61323,1.63199 4.90188,1.43972 4.21357,-0.35398 -0.83663,-2.18021 2.18275,-2.93871 4.69461,-1.17933 1.88376,1.31943 2.6537,1.33056 6.17211,0.0892 5.75002,-2.02872 7.55408,-1.78647 10.78936,1.4488 2.224,2.224 2.99252,2.54021 3.42632,1.40976 0.30757,-0.80153 0.26324,-1.93625 -0.0985,-2.5216 -0.38762,-0.62718 -0.18361,-0.77123 0.49675,-0.35074 0.63498,0.39244 1.15451,1.36197 1.15451,2.15451 0,1.57181 2.54673,1.98341 3.42994,0.55434 0.30138,-0.48765 2.12794,-1.18304 4.05901,-1.54531 3.75556,-0.70455 4.62738,-2.12967 1.76105,-2.87872 -1.31691,-0.34415 -1.19317,-0.48604 0.5,-0.57333 1.2375,-0.0638 2.25,0.424 2.25,1.084 0,0.93333 0.26667,0.93333 1.2,0 0.66,-0.66 1.8975,-1.19311 2.75,-1.18469 0.99887,0.01 1.15683,0.27655 0.44424,0.75 -0.60816,0.40408 -1.40757,2.37697 -1.77646,4.38421 -0.36889,2.00723 -1.41805,4.25723 -2.33147,5 -1.46828,1.19395 -1.56797,1.11867 -0.86009,-0.64952 1.96288,-4.903 1.8778,-5.27681 -1.09162,-4.7964 -1.55903,0.25223 -3.5096,0.71855 -4.3346,1.03626 -0.825,0.31771 -1.8375,0.50622 -2.25,0.4189 -0.41252,-0.0873 -0.75002,0.29123 -0.75002,0.84123 0,0.55 -0.41824,0.8875 -0.92942,0.75 -0.51118,-0.1375 -1.62187,0.65 -2.46819,1.75 -0.84633,1.1 -1.55309,1.52544 -1.57059,0.94542 z m 1.77507,-3.97188 c -0.30789,-0.30789 -0.86705,0.24711 -1.24258,1.23333 -0.54268,1.4252 -0.42782,1.54006 0.5598,0.5598 0.68342,-0.67834 0.99067,-1.48524 0.68278,-1.79313 z m 23.75742,3.23333 c 0.37553,-0.98622 0.93469,-1.54122 1.24258,-1.23333 0.30789,0.30789 6.4e-4,1.11479 -0.68278,1.79313 -0.98762,0.98026 -1.10248,0.8654 -0.5598,-0.5598 z m -21.56429,-8.13938 c 0,-1.86525 1.91235,-3.05514 3.06217,-1.90532 0.51721,0.51721 0.0633,1.40286 -1.08713,2.12134 -1.62562,1.01522 -1.97504,0.97701 -1.97504,-0.21602 z M 222.09288,242.53127 c -0.9575,-3.12862 -0.58518,-3.51431 2.93653,-3.04195 2.91765,0.39134 5.05595,-0.2834 10.64549,-3.35917 6.37477,-3.50786 6.9657,-4.10037 6.66953,-6.68731 -0.17885,-1.56228 0.35987,-3.59515 1.19822,-4.52152 1.39226,-1.53843 1.22019,-1.77792 -2.00205,-2.78646 -3.45207,-1.08048 -3.51231,-1.0519 -2.90259,1.3774 0.37799,1.50603 0.02,3.40051 -0.91106,4.8215 -1.2818,1.95628 -2.2623,2.29779 -5.96992,2.07939 -6.92259,-0.4078 -9.2669,-3.62563 -6.46103,-8.86846 0.92447,-1.72738 0.7899,-2.35158 -0.75,-3.47885 -1.04866,-0.76766 -2.90626,-1.1158 -4.2104,-0.78908 -1.48389,0.37175 -2.0997,0.20591 -1.69098,-0.45541 0.80302,-1.29931 4.08612,-1.3452 6.43169,-0.0899 1.32572,0.70951 2.73343,0.29921 5.55753,-1.61981 2.08015,-1.4135 3.59014,-1.99414 3.35553,-1.29031 -0.23461,0.70383 -1.97056,2.10775 -3.85767,3.11982 -1.88711,1.01207 -2.87563,1.84012 -2.19671,1.84012 0.67892,0 1.2344,0.675 1.2344,1.5 0,0.825 -0.41968,1.5 -0.93261,1.5 -1.48787,0 -2.33786,3.96918 -1.15516,5.39424 1.34598,1.62181 8.03496,1.30925 9.10712,-0.42555 0.43663,-0.70648 0.3081,-2.35066 -0.28561,-3.65373 -0.78296,-1.71841 -0.77017,-2.67853 0.0466,-3.49528 0.79348,-0.79348 0.82061,-1.69683 0.0919,-3.05852 -0.56882,-1.06285 -0.77479,-2.19188 -0.45771,-2.50896 0.31708,-0.31709 1.05685,0.80137 1.64392,2.48546 1.41782,4.06714 8.05911,6.00449 9.31996,2.71875 1.12441,-2.93017 -4.39189,-9.43445 -10.70353,-12.62056 -7.1207,-3.59452 -11.12237,-3.28601 -15.724,1.21222 -3.79367,3.70844 -4.76728,3.80959 -1.94353,0.20193 2.22555,-2.84337 6.8014,-5.04137 10.77123,-5.17392 1.25318,-0.0418 4.94769,1.27131 8.21001,2.91813 6.26886,3.16451 11.01147,8.63781 11.01147,12.70799 0,1.32703 1.22108,3.14071 3,4.45592 4.09852,3.03017 4.09419,7.52607 -0.0118,12.20248 -4.83923,5.51157 -10.54286,7.6394 -20.47736,7.6394 -4.681,0 -8.54533,-0.1125 -8.58741,-0.25 z m 19.18591,-2.30657 c 1.65554,-0.85612 4.78319,-3.15848 6.95034,-5.11636 4.48573,-4.05259 5.04776,-7.22193 1.88309,-10.61881 l -2.05718,-2.20812 -1.89281,2.49993 c -1.04105,1.37496 -2.02782,4.07493 -2.19283,5.99993 -0.26628,3.10653 -0.91832,3.83439 -5.80001,6.47446 -3.025,1.63595 -7.75,3.26009 -10.5,3.6092 -4.55918,0.57878 -4.31235,0.64716 2.79966,0.77554 5.34008,0.0964 8.74887,-0.35006 10.80974,-1.41577 z m -33.03302,-10.30071 c -0.65914,-1.23162 -0.65755,-3.07572 0.005,-5.47428 0.80383,-2.91122 0.66465,-4.15863 -0.71328,-6.39272 l -1.71198,-2.77572 2.65809,2.50874 c 2.43156,2.29493 2.56998,2.82785 1.62419,6.25321 -0.70256,2.54444 -0.70782,4.30429 -0.0164,5.49126 0.81178,1.39364 1.02363,0.92621 1.04789,-2.31208 0.0167,-2.23238 0.6911,-4.93238 1.49861,-6 0.8075,-1.06762 1.4825,-2.90188 1.5,-4.07612 0.0341,-2.29222 -4.37014,-5.85266 -5.99645,-4.84755 -0.53446,0.33031 -0.97175,0.17216 -0.97175,-0.35145 0,-1.47392 3.21075,-2.35526 4.36722,-1.19879 0.56803,0.56803 1.79171,1.03278 2.71928,1.03278 2.72573,0 2.87036,5.20165 0.27932,10.04589 -1.52709,2.85508 -2.07524,5.15702 -1.68848,7.09079 0.48407,2.42036 0.24936,2.86332 -1.51716,2.86332 -1.1494,0 -2.53711,-0.83577 -3.0838,-1.85728 z m 0.12719,-25.41329 c 4.2896,-3.85719 4.76196,-4.73666 5.36688,-9.99265 0.36481,-3.16976 0.97814,-5.95779 1.36295,-6.19562 0.38481,-0.23782 0.30037,2.58063 -0.18763,6.26322 -0.8012,6.04608 -1.28093,7.05941 -4.94513,10.44562 -2.23182,2.0625 -4.56248,3.74074 -5.17925,3.72943 -0.61676,-0.0113 0.99522,-1.92381 3.58218,-4.25 z m 11.11537,-8.53231 c -0.62445,-0.38594 -1.37981,-2.50067 -1.67856,-4.69941 l -0.54318,-3.99771 1.12776,3.75 c 0.62028,2.0625 1.44305,3.75 1.82839,3.75 0.38535,0 4.60494,-3.20104 9.37689,-7.11342 4.77194,-3.91238 8.90266,-6.88701 9.17938,-6.61029 0.27672,0.27671 -3.00975,3.33113 -7.30325,6.78758 -4.2935,3.45646 -8.49165,6.85833 -9.32921,7.55971 -0.83756,0.70138 -2.03376,0.95947 -2.65822,0.57354 z m 45.56216,-23.84038 c -0.91185,-1.09872 -0.97214,-1.98965 -0.21593,-3.19056 2.32586,-3.69359 7.47959,-2.1737 5.45525,1.60881 -1.46009,2.7282 -3.72129,3.41085 -5.23932,1.58175 z m 4.06601,-4.2077 c -1.63602,-0.54534 -3.30042,1.47027 -2.40733,2.91532 0.56846,0.91979 1.12124,0.75213 2.14747,-0.65133 0.96106,-1.31433 1.04021,-2.00388 0.25986,-2.26399 z m -9.46839,-5.89904 c -0.33654,-2.0625 -0.69846,-4.425 -0.80425,-5.25 -0.1251,-0.97553 -1.76263,-1.70972 -4.68341,-2.09981 l -4.49106,-0.5998 4.73095,-0.1502 c 5.16364,-0.16393 4.86619,-0.549 6.25675,8.09981 0.33161,2.0625 0.37793,3.75 0.10293,3.75 -0.275,0 -0.77536,-1.6875 -1.11191,-3.75 z m 6.52128,2.38619 c 0,-0.275 1.35,-1.46129 3,-2.63619 1.65,-1.1749 3,-1.91119 3,-1.63619 0,0.275 -1.35,1.46129 -3,2.63619 -1.65,1.1749 -3,1.91119 -3,1.63619 z m 2.32843,-15.15619 c -2.7571,-5.55283 -3.06148,-5.80197 -12.07003,-9.87984 -5.08289,-2.30085 -9.80789,-4.75546 -10.5,-5.45467 -1.60798,-1.62448 0.58896,-0.79486 12.53513,4.73354 8.54507,3.95445 8.86583,4.22737 11.35262,9.65924 3.39765,7.42143 2.29195,8.21163 -1.31772,0.94173 z m -27.92998,1.77 c 1.45334,-2.85761 1.4687,-3.25 0.12723,-3.25 -0.89674,0 -1.55181,0.92753 -1.58907,2.25 -0.0627,2.22725 -0.0732,2.22553 -1.03048,-0.16952 -1.24053,-3.1036 0.12989,-4.53924 3.52065,-3.68821 3.28131,0.82355 3.26422,2.62147 -0.054,5.68342 l -2.62723,2.42431 1.65291,-3.25 z m 6.06439,-12.5 c -1.5853,-2.40375 -2.04879,-3.63002 -1.06695,-2.82283 1.64859,1.35531 5.09443,7.07283 4.26268,7.07283 -0.21604,0 -1.65412,-1.9125 -3.19573,-4.25 z m -45.46284,-18.56854 c 0,-1.20855 1.8972,-2.61759 2.5907,-1.9241 0.2517,0.2517 -0.22824,1.02686 -1.06653,1.72258 -0.95039,0.78875 -1.52417,0.86462 -1.52417,0.20152 z m 3.72941,-4.38902 c -4.11354,-1.09189 -6.08588,-3.66229 -5.44344,-7.09402 0.34644,-1.85058 0.53466,-1.68278 1.18958,1.0605 0.68812,2.88236 1.39889,3.43942 6.15123,4.82096 8.05093,2.34047 6.37849,3.40928 -1.89737,1.21256 z m -8.7652,-5.62809 c 0.6588,-1.2846 1.47209,-2.06139 1.80729,-1.72619 0.3352,0.3352 -0.20383,1.38624 -1.19784,2.33565 -1.72775,1.65022 -1.75457,1.6234 -0.60945,-0.60946 z"
       id="path1704" />
  </g>
</svg>
